<svg width="64" height="65" viewBox="0 0 64 65" fill="none" xmlns="http://www.w3.org/2000/svg">
<path fill-rule="evenodd" clip-rule="evenodd" d="M41.898 53.8081L43.4841 54.6806C44.8073 55.4082 46.4856 54.9212 47.2134 53.598C47.9414 52.2746 47.6959 50.7388 46.618 50.1387C47.9378 50.8778 49.6214 50.3758 50.3473 49.0561C50.7916 48.2481 50.7789 47.3153 50.4031 46.5412L50.815 46.3698L32.2238 31.5717C26.9209 27.9953 23.2261 32.6036 19.5803 30.552L14.7508 28.3238C13.9348 27.9473 12.963 28.3016 12.5808 29.115L7.39464 40.1493C7.20077 40.5621 7.18252 40.9871 7.34064 41.4147C7.49864 41.8425 7.78902 42.1535 8.20464 42.3408C9.92764 43.1171 12.568 44.3051 13.1094 44.5152C14.7619 45.1567 14.2171 47.7391 15.1216 48.9178C16.5138 50.7323 16.7408 52.0552 17.9255 52.7357L34.7103 62.3762C36.0196 63.1282 37.7118 62.6168 38.4395 61.2936C39.1671 59.9707 38.6774 58.2967 37.3608 57.5586L39.251 58.62C40.5676 59.3592 42.2525 58.8607 42.9804 57.5373C43.7085 56.2141 43.214 54.5488 41.898 53.8081Z" fill="white"/>
<path fill-rule="evenodd" clip-rule="evenodd" d="M32.7777 32.0126L32.2238 31.5717C26.921 27.9953 23.2262 32.6036 19.5803 30.552L14.7508 28.3238C13.9348 27.9473 12.9631 28.3016 12.5808 29.115L11.4342 31.5547C12.575 30.9826 13.9336 31.331 15.441 32.2348C22.6641 36.5655 25.1457 31.874 30.8116 33.8766C31.038 33.6627 31.2608 33.445 31.4798 33.2236C31.8956 32.8022 32.3286 32.3982 32.7777 32.0126ZM45.6698 49.6076L46.6181 50.1387C47.8776 50.8441 49.4721 50.4206 50.2458 49.2257L41.3622 44.1757C40.7342 43.8221 39.9385 44.0446 39.5848 44.6726C39.2313 45.3006 39.4537 46.0963 40.0817 46.45C41.9681 47.5297 45.7191 49.6353 45.6698 49.6076ZM41.4607 53.5698L35.3691 50.1102C34.7411 49.7566 34.5187 48.9608 34.8722 48.3328C35.2258 47.7048 36.0216 47.4825 36.6496 47.836L47.1005 53.7853C46.3232 54.9652 44.7433 55.3716 43.4842 54.6805L41.4607 53.5698ZM33.0123 54.9728C33.2081 55.2617 33.4576 55.3336 33.7701 55.512L38.0321 57.9442L39.2785 58.6352C40.5461 59.338 42.1455 58.9136 42.9156 57.7075L34.6881 53.0412C34.0601 52.6876 33.2643 52.9101 32.9107 53.5381C32.7853 53.7609 32.7281 54.0157 32.7462 54.2707C32.7642 54.5258 32.8568 54.7699 33.0123 54.9728ZM32.954 61.3673L34.1972 59.0035L38.3851 61.3878C37.6302 62.6406 35.9881 63.11 34.7105 62.3761L32.954 61.3673Z" fill="white"/>
<path fill-rule="evenodd" clip-rule="evenodd" d="M30.1638 55.7265C31.0134 54.7828 32.4343 54.4983 33.6012 55.122C33.9706 55.3188 34.2912 55.5961 34.5393 55.9333C35.1837 56.8098 35.275 57.9883 34.7612 58.9491L33.0893 62.0752C32.3558 63.4467 30.6334 63.9686 29.262 63.2351C28.1597 62.6455 27.6064 61.4167 27.8127 60.2451C26.9999 61.3785 25.442 61.7657 24.1808 61.0912C23.1013 60.5138 22.5484 59.3238 22.7195 58.1745C21.9815 59.5527 20.2679 60.0852 18.8859 59.3462C17.5145 58.6127 16.9925 56.8903 17.726 55.519L18.2533 54.5333C17.3917 55.3135 16.0948 55.512 15.0173 54.9356C13.6458 54.2021 13.1239 52.4797 13.8573 51.1085L15.6009 47.8483C16.3345 46.4766 18.0562 45.9563 19.428 46.6885C20.7458 47.3918 21.2788 49.0143 20.667 50.3555C21.5287 49.5658 22.8325 49.3635 23.9158 49.9416C25.0819 50.564 25.6334 51.9061 25.321 53.1362C26.1707 52.1927 27.5913 51.9088 28.7584 52.5317C29.9247 53.1541 30.476 54.4963 30.1638 55.7265Z" fill="white"/>
<path fill-rule="evenodd" clip-rule="evenodd" d="M18.2532 54.5333C17.3916 55.3135 16.0947 55.512 15.0172 54.9356C14.7849 54.8115 14.5713 54.6554 14.3826 54.4718C15.2496 54.5103 15.6382 53.8268 16.0332 53.132L18.9954 47.9207C19.2343 47.5005 19.2526 46.9456 19.0682 46.5278C19.1901 46.5725 19.3103 46.6258 19.4279 46.6886C20.7457 47.392 21.2787 49.0145 20.6669 50.3556L18.2532 54.5333ZM22.7194 58.1745L25.3214 53.1346C25.6328 51.9051 25.0812 50.5638 23.9157 49.9417C23.7782 49.8683 23.635 49.8065 23.4873 49.7567C23.7066 50.2735 23.5926 50.7672 23.5538 50.8421L19.6353 58.4307C19.4966 58.6995 18.9941 59.0171 18.4951 59.0935C18.6163 59.1868 18.7467 59.2716 18.8858 59.3461C20.2912 60.0977 21.9993 59.5225 22.7194 58.1745ZM33.2836 54.9767C33.3911 55.0181 33.4971 55.0663 33.6011 55.1218C33.9706 55.3187 34.2911 55.596 34.5392 55.9332C35.1836 56.8097 35.2749 57.9882 34.7611 58.949L33.0892 62.0751C32.3557 63.4466 30.6333 63.9685 29.2619 63.235C29.2466 63.2268 29.2314 63.2183 29.2163 63.21C29.5097 63.1032 29.6948 62.9416 29.7787 62.7793L33.2682 56.0215C33.4059 55.7548 33.4326 55.3335 33.2836 54.9767ZM27.8126 60.2451C26.9998 61.3785 25.4419 61.7657 24.1807 61.0912C24.0893 61.0422 24.0006 60.9883 23.9151 60.9297C24.3958 60.7198 24.8017 60.36 25.0799 59.8213L28.3319 53.5235C28.5618 53.0783 28.5126 52.6948 28.3207 52.3437C28.4716 52.394 28.618 52.4569 28.7583 52.5318C29.9244 53.1542 30.4759 54.4963 30.1636 55.7265L27.8126 60.2451Z" fill="white"/>
<path fill-rule="evenodd" clip-rule="evenodd" d="M39.7678 39.9136L49.2648 45.3266C49.7585 45.6071 50.1556 46.0308 50.4035 46.5416L55.7625 44.3056C56.5821 43.9636 56.9806 43.0286 56.6595 42.2006L52.1866 30.6622C52.0108 30.2087 51.6837 29.8866 51.2277 29.7176C50.7717 29.5487 50.3137 29.58 49.885 29.8095L46.6792 31.5254C42.8502 33.517 39.1635 26.8144 32.2305 31.5702C31.329 32.1862 30.4831 32.9255 29.7158 33.7009C27.7903 35.6466 25.4415 37.3824 22.7852 38.9327C22.7444 38.9558 22.7091 38.9876 22.682 39.0259C22.6549 39.0641 22.6366 39.1079 22.6285 39.1541C22.6101 39.2502 22.6313 39.3404 22.6916 39.4176C28.1922 46.4952 34.8862 37.1312 39.7678 39.9136Z" fill="white"/>
<path fill-rule="evenodd" clip-rule="evenodd" d="M47.1339 44.1119L49.2649 45.3265C49.7586 45.607 50.1556 46.0307 50.4035 46.5415L55.7625 44.3055C56.5817 43.9638 56.98 43.0298 56.6602 42.202L55.3483 38.8179C55.4089 39.8939 55.1594 40.8401 54.0527 41.2914L47.1339 44.1119ZM23.436 40.2704C28.7869 45.6825 35.1044 37.2555 39.7679 39.9136C32.3825 34.9114 29.6319 41.5029 23.436 40.2704Z" fill="white"/>
<path fill-rule="evenodd" clip-rule="evenodd" d="M39.0728 23.7323C37.0742 25.1438 34.6352 25.9733 32.0024 25.9733C29.3697 25.9733 26.9307 25.1438 24.9321 23.7323L20.7999 25.5531C20.7318 25.5841 20.6559 25.5936 20.5823 25.5804C20.5087 25.5672 20.4408 25.5319 20.3877 25.4793C20.3334 25.4278 20.296 25.3611 20.2805 25.2879C20.265 25.2147 20.2721 25.1385 20.3009 25.0695L22.0133 20.8303C20.5769 18.8211 19.7316 16.3605 19.7316 13.7025C19.7316 6.92563 25.2253 1.43188 32.0022 1.43188C38.7791 1.43188 44.2728 6.92563 44.2728 13.7025C44.2728 16.3606 43.4274 18.8211 41.9911 20.8303L43.7034 25.0695C43.7323 25.1385 43.7394 25.2147 43.7239 25.2879C43.7084 25.3611 43.671 25.4278 43.6167 25.4793C43.5636 25.5319 43.4957 25.5672 43.4221 25.5804C43.3484 25.5936 43.2725 25.5841 43.2044 25.5531L39.0728 23.7323Z" fill="white"/>
<path fill-rule="evenodd" clip-rule="evenodd" d="M40.2491 20.8303L41.93 24.9913L43.2048 25.5531C43.2729 25.5841 43.3488 25.5936 43.4225 25.5804C43.4961 25.5672 43.564 25.5319 43.6171 25.4793C43.6714 25.4278 43.7088 25.3611 43.7243 25.2879C43.7398 25.2147 43.7327 25.1385 43.7038 25.0695L41.9915 20.8303C43.4278 18.8211 44.2732 16.3605 44.2732 13.7025C44.2732 6.92563 38.7795 1.43188 32.0026 1.43188C31.7097 1.43188 31.4192 1.44213 31.1315 1.46238C37.5018 1.90913 42.531 7.21863 42.531 13.7026C42.5308 16.3605 41.6855 18.8211 40.2491 20.8303Z" fill="white"/>
<path fill-rule="evenodd" clip-rule="evenodd" d="M20.7263 13.7711C20.7263 7.5561 25.7854 2.50135 32.0002 2.50135C38.2149 2.50135 43.2741 7.55622 43.2741 13.7711C43.2741 16.1375 42.5488 18.4 41.1749 20.3175C41.0766 20.4542 41.0147 20.6138 40.9951 20.7812C40.9755 20.9485 40.9988 21.118 41.0629 21.2738L42.1951 24.0861L39.4709 22.8863C39.1524 22.7437 38.7811 22.7813 38.4921 22.9837C36.5876 24.33 34.3411 25.0423 32.0001 25.0423C29.6592 25.0423 27.4127 24.33 25.5082 22.9837C25.3389 22.8649 25.1371 22.8011 24.9303 22.8011C24.7903 22.801 24.6517 22.83 24.5234 22.8863L21.8052 24.0861L22.9373 21.2738C23.0014 21.118 23.0248 20.9485 23.0052 20.7812C22.9856 20.6138 22.9237 20.4542 22.8253 20.3175C21.4516 18.4 20.7263 16.1375 20.7263 13.7711ZM19.0281 25.6198C18.9525 25.804 18.934 26.0067 18.975 26.2015C19.016 26.3964 19.1146 26.5744 19.2581 26.7125C19.4004 26.8509 19.581 26.9435 19.7764 26.9785C19.9719 27.0135 20.1733 26.9892 20.3548 26.9087L24.8302 24.9387C26.9647 26.3161 29.4352 27.0426 32.0002 27.0426C34.5652 27.0426 37.0298 26.3161 39.1702 24.9387L43.6456 26.9087C43.8271 26.9892 44.0285 27.0135 44.224 26.9785C44.4194 26.9435 44.6 26.8509 44.7423 26.7125C45.0372 26.4287 45.1256 25.9973 44.9723 25.6198L43.1149 21.0211C44.5301 18.865 45.2731 16.3698 45.2731 13.7711C45.2731 6.4536 39.3177 0.501221 32.0003 0.501221C24.6829 0.501221 18.7274 6.4536 18.7274 13.7711C18.7274 16.3698 19.4704 18.865 20.8856 21.0211L19.0281 25.6198ZM25.5142 13.7711C25.5142 14.4275 26.0449 14.9586 26.6993 14.9586C27.3538 14.9586 27.8846 14.4275 27.8846 13.7711C27.8846 13.1162 27.3539 12.5837 26.6993 12.5837C26.0448 12.5837 25.5142 13.1162 25.5142 13.7711ZM36.1158 13.7711C36.1158 14.4275 36.6464 14.9586 37.3009 14.9586C37.9554 14.9586 38.4861 14.4275 38.4861 13.7711C38.4861 13.1162 37.9554 12.5837 37.3009 12.5837C36.6464 12.5837 36.1158 13.1162 36.1158 13.7711ZM30.7973 13.7711C30.7973 14.4275 31.3338 14.9586 31.9883 14.9586C32.6428 14.9586 33.1736 14.4275 33.1736 13.7711C33.1736 13.1162 32.6429 12.5837 31.9883 12.5837C31.3339 12.5837 30.7973 13.1162 30.7973 13.7711ZM50.4794 45.6986C50.191 45.3532 49.8436 45.0617 49.4534 44.8375L40.1431 39.5337C39.3176 39.0637 38.4684 38.8776 37.6076 38.8776C35.9507 38.8776 34.2466 39.5676 32.5779 40.2425C29.4647 41.5012 26.7464 42.6038 24.2051 39.8912C26.6816 38.3826 28.7983 36.7475 30.5083 35.0175C31.2689 34.2537 32.0354 33.6012 32.7902 33.0773C36.3988 30.5825 38.8988 31.6037 41.3164 32.5925C43.1031 33.3223 44.9486 34.0762 46.8944 33.0648L50.6387 31.0598L55.4856 43.5622L50.4794 45.6986ZM49.1411 48.8788C49.5833 48.075 49.2767 47.0413 48.4629 46.5751L39.1526 41.2713C37.5842 40.375 35.6088 41.1725 33.3269 42.0962C29.8599 43.5001 25.5437 45.2476 21.8879 40.21C21.7228 39.9801 21.6581 39.69 21.7169 39.4126C21.7465 39.275 21.8048 39.1453 21.8882 39.0319C21.9715 38.9186 22.0779 38.8242 22.2004 38.755C24.9599 37.1738 27.2772 35.4438 29.0874 33.6113C29.5205 33.1733 29.973 32.7548 30.4436 32.3573C28.4388 31.4812 26.7288 31.885 24.9304 32.3087C23.1497 32.73 21.3042 33.1662 19.4114 32.1213L14.1696 29.7013L8.56795 41.6162C8.65045 41.6526 8.73895 41.6927 8.83332 41.7351C10.4136 42.4463 13.3499 43.77 13.8864 43.9801C15.2544 44.5088 15.6141 45.7938 15.8204 46.8563C16.9408 45.7526 18.6921 45.45 20.1543 46.2301C21.0152 46.6901 21.6521 47.4651 21.9409 48.4102C22.0058 48.6251 22.0471 48.8413 22.0766 49.0588C22.9197 48.8851 23.7866 49.0088 24.5472 49.4176C25.4139 49.8787 26.0508 50.6527 26.3338 51.5988C26.3514 51.6388 26.3574 51.6787 26.3692 51.72C27.1593 51.4851 28.4271 51.4927 29.2938 51.9563C30.1606 52.4163 30.9212 53.439 31.1158 54.2576C31.5286 54.119 31.9708 54.0488 32.4071 54.0602C32.9791 54.0752 33.5392 54.2265 34.0403 54.494C34.4542 54.7152 34.8223 55.0131 35.1252 55.3716L39.1996 57.624C40.0132 58.073 41.0452 57.7742 41.4933 56.9565C41.9414 56.1477 41.6348 55.1166 40.8211 54.6566L35.0721 51.4228C34.5944 51.1527 34.4234 50.5428 34.6947 50.0616C34.759 49.9471 34.8453 49.8463 34.9486 49.7652C35.0519 49.684 35.1702 49.624 35.2967 49.5886C35.4232 49.5532 35.5555 49.543 35.6859 49.5587C35.8163 49.5745 35.9424 49.6157 36.0568 49.6802L43.3212 53.7416C43.7162 53.9565 44.1703 54.0065 44.6066 53.8802C45.0429 53.7541 45.4026 53.4677 45.6148 53.0741C46.0629 52.2653 45.7622 51.2328 44.9426 50.774C44.9191 50.7602 39.1996 47.5252 39.1996 47.5252C38.7161 47.2527 38.5509 46.6428 38.8222 46.1627C38.8866 46.0482 38.9729 45.9476 39.0762 45.8665C39.1796 45.7854 39.2979 45.7255 39.4244 45.6902C39.5509 45.6549 39.6831 45.6449 39.8135 45.6608C39.9439 45.6767 40.0699 45.7181 40.1842 45.7827L46.8531 49.5513C47.2363 49.7665 47.6786 49.8176 48.1089 49.6953C48.5572 49.5686 48.9228 49.2786 49.1411 48.8788ZM38.1324 61.2487C37.6784 62.065 36.6524 62.3637 35.8328 61.9148L34.6123 61.2448L35.5558 59.4886C35.7858 59.0611 35.9213 58.6011 35.9686 58.1313L37.4603 58.9487V58.9512C38.2798 59.4036 38.5747 60.4336 38.1324 61.2487ZM31.1511 62.4262C30.7147 62.5587 30.2607 62.5137 29.8657 62.3025C29.0402 61.8623 28.7336 60.8362 29.1699 60.0148L30.8092 56.9512C31.2396 56.1437 32.2951 55.8275 33.0969 56.2586C33.8871 56.6798 34.2408 57.7536 33.7927 58.5462L32.1534 61.6086C31.9412 62.005 31.5874 62.295 31.1511 62.4262ZM26.1746 60.3263C25.7383 60.4575 25.2783 60.4138 24.8833 60.2025C24.0637 59.7625 23.7512 58.7362 24.1934 57.9137L26.0626 54.4125C26.4753 53.5925 27.5603 53.2988 28.3563 53.7201C28.7454 53.93 29.0344 54.2837 29.1701 54.7175C29.2998 55.1537 29.2586 55.6126 29.0462 56.0075L27.1712 59.5087C26.9647 59.9036 26.6049 60.195 26.1746 60.3263ZM20.9857 58.6161C20.5493 58.7473 20.0953 58.7036 19.7003 58.4925C18.8748 58.0525 18.5623 57.0262 19.0046 56.2037L21.3218 51.8701C21.7523 51.0626 22.8018 50.7526 23.6097 51.1826C24.4116 51.6101 24.7359 52.6587 24.2996 53.47L21.9823 57.7987C21.7758 58.1937 21.4162 58.4848 20.9857 58.6161ZM15.9089 54.1698C15.0834 53.7298 14.7709 52.7036 15.2132 51.8811C15.2132 51.8811 16.9173 48.6887 16.9232 48.6873C17.3477 47.8925 18.3973 47.5587 19.2109 47.995C20.0188 48.425 20.3372 49.4748 19.9008 50.2823L18.1908 53.4811C18.0865 53.6755 17.9447 53.8474 17.7737 53.9869C17.6027 54.1264 17.4058 54.2306 17.1943 54.2937C16.7581 54.4248 16.3039 54.3813 15.9089 54.1698ZM57.7026 43.7425L52.0951 29.2837C51.9948 29.0162 51.7767 28.8073 51.5113 28.7073C51.3785 28.6581 51.2368 28.6376 51.0954 28.6473C50.9541 28.657 50.8165 28.6967 50.6917 28.7637L45.9628 31.2948C44.9014 31.8473 43.8461 31.4648 42.0712 30.7411C39.6891 29.7661 36.4578 28.4498 32.2537 31.0412C29.1993 29.2475 26.5932 29.8611 24.4704 30.3625C22.8548 30.7436 21.5812 31.045 20.3607 30.3573C20.3363 30.343 20.3106 30.3309 20.2841 30.3212L14.1047 27.47C13.6094 27.2398 13.0138 27.4547 12.7839 27.9522C12.7839 27.9522 6.33332 41.6786 6.32745 41.6873C6.09157 42.1835 6.32157 42.8235 6.85807 43.0397C6.94057 43.076 12.6247 45.6335 13.1672 45.8435C13.5917 46.0085 13.7273 46.5183 13.9161 47.5611C14.0163 48.101 14.1224 48.6922 14.3642 49.2323L13.4503 50.9383C12.4892 52.7321 13.1673 54.9735 14.9598 55.9335C15.5023 56.2223 16.0978 56.3697 16.6933 56.3697C16.7464 56.3697 16.8053 56.366 16.8584 56.3635C16.5932 57.8896 17.3124 59.4846 18.7512 60.2546C19.8421 60.8371 21.2217 60.8246 22.3126 60.2097C22.2241 60.2608 22.9612 61.1971 23.0496 61.2861C23.3974 61.6398 23.8221 61.9222 24.2819 62.1122C25.2136 62.4985 26.2749 62.4847 27.1948 62.0736C26.9353 62.1897 28.4331 63.7585 28.5923 63.866C29.5062 64.486 30.6737 64.6611 31.7292 64.341C32.5076 64.1048 33.1738 63.6336 33.6397 62.991L34.8721 63.6672C35.4133 63.9672 36.0221 64.1242 36.6409 64.1235C37.9441 64.1235 39.2118 63.4322 39.8839 62.2122C40.2836 61.4828 40.4249 60.6397 40.2849 59.8198C41.4878 59.7298 42.6258 59.0536 43.2449 57.921C43.5822 57.3114 43.7358 56.6172 43.6872 55.9222C43.8346 55.9397 43.9821 55.9498 44.1236 55.9498C44.4714 55.9498 44.8193 55.8996 45.1673 55.7997C46.1167 55.5247 46.8949 54.8985 47.3726 54.0386C47.7676 53.3187 47.8914 52.5185 47.7853 51.7561C48.0742 51.7448 48.3691 51.701 48.6579 51.6186C49.6191 51.3447 50.4151 50.7147 50.8927 49.8423C51.2937 49.1122 51.4174 48.2972 51.2996 47.5236L57.1606 45.0236C57.6553 44.8112 57.8971 44.2451 57.7026 43.7425Z" fill="#C4C4C4"/>
</svg>
