<svg width="108" height="108" viewBox="0 0 108 108" fill="none" xmlns="http://www.w3.org/2000/svg">
<path d="M53.9998 0.5C24.5598 0.5 0.666504 24.3933 0.666504 53.8333C0.666504 83.2733 24.5598 107.167 53.9998 107.167C83.4398 107.167 107.333 83.2733 107.333 53.8333C107.333 24.3933 83.4398 0.5 53.9998 0.5ZM39.5465 76.7133L20.3998 57.5667C18.3198 55.4867 18.3198 52.1267 20.3998 50.0467C22.4798 47.9667 25.8398 47.9667 27.9198 50.0467L43.3332 65.4067L80.0265 28.7133C82.1065 26.6333 85.4665 26.6333 87.5465 28.7133C89.6265 30.7933 89.6265 34.1533 87.5465 36.2333L47.0665 76.7133C45.0398 78.7933 41.6265 78.7933 39.5465 76.7133Z" fill="#27AE60"/>
</svg>
