<svg width="139" height="95" viewBox="0 0 139 95" fill="none" xmlns="http://www.w3.org/2000/svg">
<path d="M116.027 94.9999H1.97568C1.45416 94.9999 0.953995 94.8121 0.585223 94.4778C0.216451 94.1435 0.00927734 93.6901 0.00927734 93.2173V36.1738C0.00927734 35.7011 0.216451 35.2477 0.585223 34.9134C0.953995 34.5791 1.45416 34.3912 1.97568 34.3912C2.4972 34.3912 2.99736 34.5791 3.36613 34.9134C3.73491 35.2477 3.94208 35.7011 3.94208 36.1738V91.4347H114.061V21.913C114.061 21.4402 114.268 20.9868 114.637 20.6525C115.005 20.3182 115.505 20.1304 116.027 20.1304C116.548 20.1304 117.049 20.3182 117.417 20.6525C117.786 20.9868 117.993 21.4402 117.993 21.913V93.2173C117.993 93.6901 117.786 94.1435 117.417 94.4778C117.049 94.8121 116.548 94.9999 116.027 94.9999Z" fill="#A6BCC0"/>
<path d="M1.97573 87.8696C1.5623 87.8729 1.15833 87.7575 0.821675 87.5399C0.485016 87.3224 0.232938 87.0138 0.101542 86.6584C-0.0298539 86.3031 -0.0338272 85.9191 0.0901908 85.5616C0.214209 85.204 0.459856 84.8913 0.791953 84.668L35.731 60.6384C36.1479 60.3724 36.6624 60.2636 37.1662 60.3349C37.6699 60.4062 38.1233 60.652 38.4309 61.0206C38.7385 61.3892 38.8762 61.8516 38.8149 62.3104C38.7537 62.7693 38.4982 63.1886 38.1024 63.4799L3.16343 87.5095C2.82127 87.7434 2.40429 87.8698 1.97573 87.8696ZM116.027 87.8696C115.598 87.8701 115.18 87.7423 114.839 87.5059L79.6997 63.3373C79.284 63.0522 79.0103 62.6291 78.9388 62.1611C78.8673 61.6931 79.0037 61.2185 79.3182 60.8417C79.6327 60.4649 80.0994 60.2167 80.6157 60.1519C81.132 60.087 81.6555 60.2108 82.0712 60.4958L117.211 84.6644C117.542 84.8884 117.787 85.2014 117.91 85.5589C118.034 85.9164 118.03 86.3002 117.898 86.6554C117.767 87.0106 117.516 87.3193 117.18 87.5373C116.844 87.7553 116.44 87.8716 116.027 87.8696ZM59.0014 67.3803C56.3449 67.4071 53.7607 66.5968 51.6903 65.0878L6.78554 31.3965C2.98646 28.5515 0.00932528 23.603 0.00932528 20.1304V14.7826C0.00932528 14.3098 0.216499 13.8564 0.585271 13.5221C0.954043 13.1878 1.4542 13 1.97573 13H116.027C116.549 13 117.049 13.1878 117.417 13.5221C117.786 13.8564 117.993 14.3098 117.993 14.7826V20.1304C117.993 23.603 115.016 28.5515 111.217 31.4001L66.3124 65.0843C64.2434 66.5959 61.6585 67.4076 59.0014 67.3803ZM3.94213 16.5652V20.1304C3.94213 22.537 6.44339 26.5157 9.28681 28.6513L54.1915 62.3426C56.7282 64.2357 61.2745 64.2393 63.8072 62.3391L108.712 28.6549C111.559 26.5157 114.061 22.537 114.061 20.1304V16.5652H3.94213Z" fill="#A6BCC0"/>
<path d="M59.0013 67.3803C56.3449 67.4071 53.7607 66.5968 51.6902 65.0878L6.7855 31.3965C2.98641 28.5515 0.00927734 23.603 0.00927734 20.1304V14.7826C0.00927734 14.3098 0.216451 13.8564 0.585223 13.5221C0.953995 13.1878 1.45416 13 1.97568 13H116.027C116.548 13 117.049 13.1878 117.417 13.5221C117.786 13.8564 117.993 14.3098 117.993 14.7826V20.1304C117.993 23.603 115.016 28.5515 111.217 31.4001L66.3124 65.0843C64.2433 66.5958 61.6585 67.4076 59.0013 67.3803ZM3.94208 16.5652V20.1304C3.94208 22.537 6.44334 26.5157 9.28676 28.6513L54.1915 62.3426C56.7282 64.2357 61.2745 64.2393 63.8072 62.339L108.712 28.6549C111.559 26.5157 114.061 22.537 114.061 20.1304V16.5652H3.94208Z" fill="#A6BCC0"/>
<path d="M119 2.85718C122.11 2.85718 124.978 3.62355 127.605 5.15628C130.231 6.68902 132.311 8.76864 133.844 11.3951C135.377 14.0216 136.143 16.8899 136.143 20C136.143 23.1102 135.377 25.9785 133.844 28.6049C132.311 31.2314 130.231 33.311 127.605 34.8438C124.978 36.3765 122.11 37.1429 119 37.1429C115.89 37.1429 113.022 36.3765 110.395 34.8438C107.769 33.311 105.689 31.2314 104.156 28.6049C102.624 25.9785 101.857 23.1102 101.857 20C101.857 16.8899 102.624 14.0216 104.156 11.3951C105.689 8.76864 107.769 6.68902 110.395 5.15628C113.022 3.62355 115.89 2.85718 119 2.85718ZM121.857 30.692V26.4509C121.857 26.2426 121.79 26.0677 121.656 25.9264C121.522 25.785 121.359 25.7143 121.165 25.7143H116.879C116.686 25.7143 116.515 25.7887 116.366 25.9375C116.217 26.0863 116.143 26.2575 116.143 26.4509V30.692C116.143 30.8855 116.217 31.0566 116.366 31.2054C116.515 31.3542 116.686 31.4286 116.879 31.4286H121.165C121.359 31.4286 121.522 31.3579 121.656 31.2166C121.79 31.0752 121.857 30.9003 121.857 30.692ZM121.813 23.0134L122.214 9.15182C122.214 8.97325 122.14 8.83932 121.991 8.75003C121.842 8.63099 121.664 8.57146 121.455 8.57146H116.545C116.336 8.57146 116.158 8.63099 116.009 8.75003C115.86 8.83932 115.786 8.97325 115.786 9.15182L116.165 23.0134C116.165 23.1622 116.24 23.2924 116.388 23.4041C116.537 23.5157 116.716 23.5715 116.924 23.5715H121.054C121.262 23.5715 121.437 23.5157 121.578 23.4041C121.72 23.2924 121.798 23.1622 121.813 23.0134Z" fill="#EE6A5F"/>
</svg>
