<svg width="30" height="28" viewBox="0 0 30 28" fill="none" xmlns="http://www.w3.org/2000/svg">
<path d="M5.02441 1.34375H26.8134V4.36322H5.02441V1.34375Z" fill="white"/>
<path d="M23.1683 24.3438H9.18713V26.3438H23.1683V24.3438Z" fill="white"/>
<path d="M29.1233 24.8398V7.83984C29.1233 6.73184 28.1995 5.83984 27.052 5.83984H3.23218L1.16089 7.83984V20.8398C1.16089 21.9478 2.08468 22.8398 3.23218 22.8398H27.052" fill="#F4F7F8"/>
<path d="M17.2134 6.84375H15.6599C15.2309 6.84375 14.8832 7.17954 14.8832 7.59375C14.8832 8.00796 15.2309 8.34375 15.6599 8.34375H17.2134C17.6424 8.34375 17.9901 8.00796 17.9901 7.59375C17.9901 7.17954 17.6424 6.84375 17.2134 6.84375Z" fill="white"/>
<path d="M18.5079 9.34375H14.3654V10.8438H18.5079V9.34375Z" fill="white"/>
<path d="M11.2584 15.3438H8.66931V16.8438H11.2584V15.3438Z" fill="white"/>
<path d="M11.7763 10.4463L13.2225 11.8428L11.7763 13.2393L10.33 11.8428L11.7763 10.4463ZM29.1233 24.8393V7.83929C29.124 7.57647 29.0709 7.31611 28.967 7.07318C28.8631 6.83025 28.7105 6.60959 28.518 6.42383L1.76624 22.2548C1.95862 22.4407 2.18718 22.5881 2.43877 22.6884C2.69035 22.7887 2.96 22.84 3.23219 22.8393H27.052" fill="white"/>
<path d="M27.052 26.8438C27.4156 26.8437 27.7728 26.7513 28.0876 26.5757C28.4025 26.4002 28.664 26.1478 28.8458 25.8438C29.0275 25.5397 29.1233 25.1948 29.1233 24.8438C29.1233 24.4927 29.0275 24.1478 28.8458 23.8438C28.664 23.5397 28.4025 23.2872 28.0876 23.1117C27.7728 22.9362 27.4156 22.8438 27.052 22.8438V24.8438V26.8438ZM3.23218 3.34375C2.86851 3.34367 2.51123 3.43603 2.19627 3.61157C1.8813 3.78711 1.61976 4.03965 1.43793 4.34375C1.23107 4.69241 1.13778 5.09312 1.17021 5.49371C1.17021 11.3437 1.16089 14.3438 1.16089 20.8438H1.16296C1.16228 20.4929 1.25711 20.1481 1.43793 19.8438C1.61976 19.5396 1.8813 19.2871 2.19627 19.1116C2.51123 18.936 2.86851 18.8437 3.23218 18.8438V5.34375V3.34375Z" fill="white"/>
<path d="M5.82129 3.59375H6.33911V4.59375H5.82129V3.59375ZM6.85693 3.09375H7.37476V4.59375H6.85693V3.09375ZM7.89258 3.59375H8.4104V4.59375H7.89258V3.59375ZM8.92822 3.09375H9.44605V4.59375H8.92822V3.09375ZM9.96387 3.59375H10.4817V4.59375H9.96387V3.59375ZM10.9995 3.09375H11.5173V4.59375H10.9995V3.09375ZM12.0352 3.59375H12.553V4.59375H12.0352V3.59375ZM13.0708 3.09375H13.5886V4.59375H13.0708V3.09375ZM14.1065 3.59375H14.6243V4.59375H14.1065V3.59375ZM15.1421 3.09375H15.6599V4.59375H15.1421V3.09375ZM16.1777 3.59375H16.6956V4.59375H16.1777V3.59375ZM17.2134 3.09375H17.7312V4.59375H17.2134V3.09375ZM18.249 3.59375H18.7669V4.59375H18.249V3.59375ZM19.2847 3.09375H19.8025V4.59375H19.2847V3.09375ZM20.3203 3.59375H20.8381V4.59375H20.3203V3.59375ZM21.356 3.09375H21.8738V4.59375H21.356V3.09375ZM22.3916 3.59375H22.9094V4.59375H22.3916V3.59375ZM23.4273 3.09375H23.9451V4.59375H23.4273V3.09375ZM24.4629 3.59375H24.9807V4.59375H24.4629V3.59375ZM25.4985 3.09375H26.0164V4.59375H25.4985V3.09375Z" fill="#066FE0"/>
<path d="M22.1171 24.4082H23.2154V26.2867H22.1171V24.4082Z" fill="white"/>
<path d="M1.16089 7.83984V20.8398C1.16089 21.9478 2.08468 22.8398 3.23218 22.8398H27.052M29.1233 24.8398V7.83984C29.1233 6.73184 28.1995 5.83984 27.052 5.83984H3.23218" stroke="#066FE0" stroke-width="0.76325" stroke-linecap="round" stroke-linejoin="round"/>
<path d="M19.8025 16.8438V18.8438H18.0227M9.96334 16.8438V17.8438H13.5881V16.9587M19.802 15.3123V13.8593M19.802 12.2812V9.84375H18.5079M9.94678 15.1588V14.3438H13.5985V15.1588M11.7768 14.2787V13.1672M11.7768 10.5707V9.84375H14.2364M27.052 26.8438C27.4156 26.8437 27.7728 26.7513 28.0876 26.5757C28.4025 26.4002 28.6639 26.1478 28.8457 25.8438C29.0275 25.5397 29.1232 25.1948 29.1232 24.8438C29.1232 24.4927 29.0275 24.1478 28.8457 23.8438C28.6639 23.5397 28.4025 23.2872 28.0876 23.1117C27.7728 22.9362 27.4156 22.8438 27.052 22.8438V24.8438V26.8438Z" stroke="#066FE0" stroke-width="0.76325" stroke-linecap="round" stroke-linejoin="round"/>
<path d="M17.2134 6.84375H15.6599C15.2309 6.84375 14.8832 7.17954 14.8832 7.59375C14.8832 8.00796 15.2309 8.34375 15.6599 8.34375H17.2134C17.6424 8.34375 17.9901 8.00796 17.9901 7.59375C17.9901 7.17954 17.6424 6.84375 17.2134 6.84375Z" stroke="#066FE0" stroke-width="0.76325" stroke-linecap="round" stroke-linejoin="round"/>
<path d="M18.5079 9.34375H14.3654V10.8438H18.5079V9.34375Z" stroke="#066FE0" stroke-width="0.76325" stroke-linecap="round" stroke-linejoin="round"/>
<path d="M11.2584 15.3438H8.66931V16.8438H11.2584V15.3438Z" stroke="#066FE0" stroke-width="0.76325" stroke-linecap="round" stroke-linejoin="round"/>
<path d="M21.6149 15.3438H17.9901V16.8438H21.6149V15.3438Z" fill="white"/>
<path d="M14.8832 15.3438H12.2941V16.8438H14.8832V15.3438Z" fill="white"/>
<path d="M17.7312 20.3438H15.1421C14.7131 20.3438 14.3654 20.6795 14.3654 21.0938C14.3654 21.508 14.7131 21.8438 15.1421 21.8438H17.7312C18.1602 21.8438 18.5079 21.508 18.5079 21.0938C18.5079 20.6795 18.1602 20.3438 17.7312 20.3438Z" fill="white"/>
<path d="M16.4366 8.42188V9.31189M11.7762 10.4468L13.2225 11.8434L11.7762 13.2399L10.33 11.8434L11.7762 10.4468Z" stroke="#066FE0" stroke-width="0.76325" stroke-linecap="round" stroke-linejoin="round"/>
<path d="M21.6149 12.3438H17.9901V13.8438H21.6149V12.3438Z" fill="white"/>
<path d="M11.7762 17.8438V18.8438H14.8402" stroke="#066FE0" stroke-width="0.76325" stroke-linecap="round" stroke-linejoin="round"/>
<path d="M17.9901 17.8438H14.8832V19.3438H17.9901V17.8438Z" fill="white"/>
<path d="M16.4367 19.4032V20.2708M3.23218 3.34375C2.86851 3.34367 2.51123 3.43603 2.19627 3.61157C1.8813 3.78711 1.61976 4.03965 1.43793 4.34375C1.23107 4.69241 1.13778 5.09312 1.17021 5.49371C1.17021 11.3437 1.16089 14.3438 1.16089 20.8438H1.16296C1.16228 20.4929 1.25711 20.1481 1.43793 19.8438C1.61976 19.5396 1.8813 19.2871 2.19627 19.1116C2.51123 18.936 2.86851 18.8437 3.23218 18.8438V5.34375V3.34375Z" stroke="#066FE0" stroke-width="0.76325" stroke-linecap="round" stroke-linejoin="round"/>
<path d="M5.02441 1.34375H26.8134V4.36322H5.02441V1.34375Z" stroke="#066FE0" stroke-width="0.76325" stroke-linejoin="round"/>
<path d="M9.18714 24.3438V26.3438L6.59802 25.3438L9.18714 24.3438Z" fill="white"/>
<path d="M23.1683 24.3438H24.204C24.4909 24.3438 24.7218 24.5667 24.7218 24.8438V25.8438C24.7218 26.1207 24.4909 26.3438 24.204 26.3438H23.1683" fill="white"/>
<path d="M22.1327 26.3438V24.3438" stroke="#066FE0" stroke-width="0.76325" stroke-linecap="round" stroke-linejoin="round"/>
<path d="M9.18714 24.3438V26.3438L6.59802 25.3438L9.18714 24.3438Z" fill="#F4F7F8" stroke="#066FE0" stroke-width="0.76325" stroke-linecap="round" stroke-linejoin="round"/>
<path d="M9.18713 25.3438H22.1327" stroke="#066FE0" stroke-width="0.76325"/>
<path d="M23.1683 24.3438H24.204C24.4909 24.3438 24.7218 24.5667 24.7218 24.8438V25.8438C24.7218 26.1208 24.4909 26.3438 24.204 26.3438H23.1683" stroke="#066FE0" stroke-width="0.76325" stroke-linecap="round" stroke-linejoin="round"/>
<path d="M23.1683 24.3438H9.18713V26.3438H23.1683V24.3438Z" stroke="#066FE0" stroke-width="0.76325" stroke-linecap="round" stroke-linejoin="round"/>
<path d="M21.6149 15.3438H17.9901V16.8438H21.6149V15.3438Z" stroke="#066FE0" stroke-width="0.76325" stroke-linecap="round" stroke-linejoin="round"/>
<path d="M14.8832 15.3438H12.2941V16.8438H14.8832V15.3438Z" stroke="#066FE0" stroke-width="0.76325" stroke-linecap="round" stroke-linejoin="round"/>
<path d="M17.7312 20.3438H15.1421C14.7131 20.3438 14.3654 20.6795 14.3654 21.0938C14.3654 21.508 14.7131 21.8438 15.1421 21.8438H17.7312C18.1602 21.8438 18.5079 21.508 18.5079 21.0938C18.5079 20.6795 18.1602 20.3438 17.7312 20.3438Z" stroke="#066FE0" stroke-width="0.76325" stroke-linecap="round" stroke-linejoin="round"/>
<path d="M21.6149 12.3438H17.9901V13.8438H21.6149V12.3438Z" stroke="#066FE0" stroke-width="0.76325" stroke-linecap="round" stroke-linejoin="round"/>
<path d="M17.9901 17.8438H14.8832V19.3438H17.9901V17.8438Z" stroke="#066FE0" stroke-width="0.508833" stroke-linecap="round" stroke-linejoin="round"/>
</svg>
