<svg width="29" height="28" viewBox="0 0 29 28" fill="none" xmlns="http://www.w3.org/2000/svg">
<path d="M4.45264 1.34375H26.2416V4.36322H4.45264V1.34375Z" fill="#066FE0"/>
<path d="M22.5966 24.3438H8.61536V26.3438H22.5966V24.3438Z" fill="#066FE0"/>
<path d="M28.5515 24.8398V7.83984C28.5515 6.73184 27.6277 5.83984 26.4802 5.83984H2.6604L0.589111 7.83984V20.8398C0.589111 21.9478 1.51291 22.8398 2.6604 22.8398H26.4802" fill="#066FE0"/>
<path d="M16.6416 6.84375H15.0881C14.6592 6.84375 14.3114 7.17954 14.3114 7.59375C14.3114 8.00796 14.6592 8.34375 15.0881 8.34375H16.6416C17.0706 8.34375 17.4183 8.00796 17.4183 7.59375C17.4183 7.17954 17.0706 6.84375 16.6416 6.84375Z" fill="#066FE0"/>
<path d="M17.9362 9.34375H13.7936V10.8438H17.9362V9.34375Z" fill="#066FE0"/>
<path d="M10.6866 15.3438H8.09753V16.8438H10.6866V15.3438Z" fill="#066FE0"/>
<path d="M11.2045 10.4463L12.6508 11.8428L11.2045 13.2393L9.75821 11.8428L11.2045 10.4463ZM28.5515 24.8393V7.83929C28.5523 7.57647 28.4991 7.31611 28.3953 7.07318C28.2914 6.83025 28.1388 6.60959 27.9462 6.42383L1.19446 22.2548C1.38684 22.4407 1.6154 22.5881 1.86699 22.6884C2.11858 22.7887 2.38822 22.84 2.66041 22.8393H26.4803" fill="#066FE0"/>
<path d="M26.4802 26.8438C26.8438 26.8437 27.201 26.7513 27.5159 26.5757C27.8307 26.4002 28.0922 26.1478 28.274 25.8438C28.4558 25.5397 28.5515 25.1948 28.5515 24.8438C28.5515 24.4927 28.4558 24.1478 28.274 23.8438C28.0922 23.5397 27.8307 23.2872 27.5159 23.1117C27.201 22.9362 26.8438 22.8438 26.4802 22.8438V24.8438V26.8438ZM2.6604 3.34375C2.29674 3.34367 1.93945 3.43603 1.62449 3.61157C1.30952 3.78711 1.04798 4.03965 0.866148 4.34375C0.659296 4.69241 0.566006 5.09312 0.598435 5.49371C0.598435 11.3437 0.589111 14.3438 0.589111 20.8438H0.591181C0.590507 20.4929 0.685331 20.1481 0.866148 19.8438C1.04798 19.5396 1.30952 19.2871 1.62449 19.1116C1.93945 18.936 2.29674 18.8437 2.6604 18.8438V5.34375V3.34375Z" fill="#066FE0"/>
<path d="M5.24951 3.59375H5.76733V4.59375H5.24951V3.59375ZM6.28516 3.09375H6.80298V4.59375H6.28516V3.09375ZM7.3208 3.59375H7.83862V4.59375H7.3208V3.59375ZM8.35645 3.09375H8.87427V4.59375H8.35645V3.09375ZM9.39209 3.59375H9.90992V4.59375H9.39209V3.59375ZM10.4277 3.09375H10.9456V4.59375H10.4277V3.09375ZM11.4634 3.59375H11.9812V4.59375H11.4634V3.59375ZM12.499 3.09375H13.0169V4.59375H12.499V3.09375ZM13.5347 3.59375H14.0525V4.59375H13.5347V3.59375ZM14.5703 3.09375H15.0881V4.59375H14.5703V3.09375ZM15.606 3.59375H16.1238V4.59375H15.606V3.59375ZM16.6416 3.09375H17.1594V4.59375H16.6416V3.09375ZM17.6773 3.59375H18.1951V4.59375H17.6773V3.59375ZM18.7129 3.09375H19.2307V4.59375H18.7129V3.09375ZM19.7485 3.59375H20.2664V4.59375H19.7485V3.59375ZM20.7842 3.09375H21.302V4.59375H20.7842V3.09375ZM21.8198 3.59375H22.3377V4.59375H21.8198V3.59375ZM22.8555 3.09375H23.3733V4.59375H22.8555V3.09375ZM23.8911 3.59375H24.4089V4.59375H23.8911V3.59375ZM24.9268 3.09375H25.4446V4.59375H24.9268V3.09375Z" fill="white"/>
<path d="M21.5453 24.4082H22.6436V26.2867H21.5453V24.4082Z" fill="#066FE0"/>
<path d="M0.589111 7.83984V20.8398C0.589111 21.9478 1.51291 22.8398 2.6604 22.8398H26.4802M28.5515 24.8398V7.83984C28.5515 6.73184 27.6277 5.83984 26.4802 5.83984H2.6604" stroke="white" stroke-width="0.76325" stroke-linecap="round" stroke-linejoin="round"/>
<path d="M19.2307 16.8438V18.8438H17.451M9.39156 16.8438V17.8438H13.0163V16.9587M19.2302 15.3123V13.8593M19.2302 12.2812V9.84375H17.9362M9.375 15.1588V14.3438H13.0267V15.1588M11.205 14.2787V13.1672M11.205 10.5707V9.84375H13.6646M26.4802 26.8438C26.8438 26.8437 27.201 26.7513 27.5158 26.5757C27.8307 26.4002 28.0922 26.1478 28.274 25.8438C28.4558 25.5397 28.5515 25.1948 28.5515 24.8438C28.5515 24.4927 28.4558 24.1478 28.274 23.8438C28.0922 23.5397 27.8307 23.2872 27.5158 23.1117C27.201 22.9362 26.8438 22.8438 26.4802 22.8438V24.8438V26.8438Z" stroke="white" stroke-width="0.76325" stroke-linecap="round" stroke-linejoin="round"/>
<path d="M16.6416 6.84375H15.0881C14.6592 6.84375 14.3114 7.17954 14.3114 7.59375C14.3114 8.00796 14.6592 8.34375 15.0881 8.34375H16.6416C17.0706 8.34375 17.4183 8.00796 17.4183 7.59375C17.4183 7.17954 17.0706 6.84375 16.6416 6.84375Z" stroke="white" stroke-width="0.76325" stroke-linecap="round" stroke-linejoin="round"/>
<path d="M17.9362 9.34375H13.7936V10.8438H17.9362V9.34375Z" stroke="white" stroke-width="0.76325" stroke-linecap="round" stroke-linejoin="round"/>
<path d="M10.6866 15.3438H8.09753V16.8438H10.6866V15.3438Z" stroke="white" stroke-width="0.76325" stroke-linecap="round" stroke-linejoin="round"/>
<path d="M21.0431 15.3438H17.4183V16.8438H21.0431V15.3438Z" fill="#066FE0"/>
<path d="M14.3114 15.3438H11.7223V16.8438H14.3114V15.3438Z" fill="#066FE0"/>
<path d="M17.1594 20.3438H14.5703C14.1413 20.3438 13.7936 20.6795 13.7936 21.0938C13.7936 21.508 14.1413 21.8438 14.5703 21.8438H17.1594C17.5884 21.8438 17.9362 21.508 17.9362 21.0938C17.9362 20.6795 17.5884 20.3438 17.1594 20.3438Z" fill="#066FE0"/>
<path d="M15.8649 8.42188V9.31189M11.2045 10.4468L12.6507 11.8434L11.2045 13.2399L9.75818 11.8434L11.2045 10.4468Z" stroke="white" stroke-width="0.76325" stroke-linecap="round" stroke-linejoin="round"/>
<path d="M21.0431 12.3438H17.4183V13.8438H21.0431V12.3438Z" fill="#066FE0"/>
<path d="M11.2045 17.8438V18.8438H14.2684" stroke="white" stroke-width="0.76325" stroke-linecap="round" stroke-linejoin="round"/>
<path d="M17.4183 17.8438H14.3114V19.3438H17.4183V17.8438Z" fill="#066FE0"/>
<path d="M15.8649 19.4032V20.2708M2.6604 3.34375C2.29674 3.34367 1.93945 3.43603 1.62449 3.61157C1.30952 3.78711 1.04798 4.03965 0.866148 4.34375C0.659296 4.69241 0.566006 5.09312 0.598435 5.49371C0.598435 11.3437 0.589111 14.3438 0.589111 20.8438H0.591181C0.590507 20.4929 0.685331 20.1481 0.866148 19.8438C1.04798 19.5396 1.30952 19.2871 1.62449 19.1116C1.93945 18.936 2.29674 18.8437 2.6604 18.8438V5.34375V3.34375Z" stroke="white" stroke-width="0.76325" stroke-linecap="round" stroke-linejoin="round"/>
<path d="M4.45264 1.34375H26.2416V4.36322H4.45264V1.34375Z" stroke="white" stroke-width="0.76325" stroke-linejoin="round"/>
<path d="M8.61536 24.3438V26.3438L6.02625 25.3438L8.61536 24.3438Z" fill="#066FE0"/>
<path d="M22.5966 24.3438H23.6322C23.9191 24.3438 24.15 24.5667 24.15 24.8438V25.8438C24.15 26.1207 23.9191 26.3438 23.6322 26.3438H22.5966" fill="#066FE0"/>
<path d="M21.5609 26.3438V24.3438" stroke="white" stroke-width="0.76325" stroke-linecap="round" stroke-linejoin="round"/>
<path d="M8.61536 24.3438V26.3438L6.02625 25.3438L8.61536 24.3438Z" fill="#066FE0" stroke="white" stroke-width="0.76325" stroke-linecap="round" stroke-linejoin="round"/>
<path d="M8.61536 25.3438H21.5609" stroke="white" stroke-width="0.76325"/>
<path d="M22.5966 24.3438H23.6322C23.9191 24.3438 24.15 24.5667 24.15 24.8438V25.8438C24.15 26.1208 23.9191 26.3438 23.6322 26.3438H22.5966" stroke="white" stroke-width="0.76325" stroke-linecap="round" stroke-linejoin="round"/>
<path d="M22.5966 24.3438H8.61536V26.3438H22.5966V24.3438Z" stroke="white" stroke-width="0.76325" stroke-linecap="round" stroke-linejoin="round"/>
<path d="M21.0431 15.3438H17.4183V16.8438H21.0431V15.3438Z" stroke="white" stroke-width="0.76325" stroke-linecap="round" stroke-linejoin="round"/>
<path d="M14.3114 15.3438H11.7223V16.8438H14.3114V15.3438Z" stroke="white" stroke-width="0.76325" stroke-linecap="round" stroke-linejoin="round"/>
<path d="M17.1594 20.3438H14.5703C14.1413 20.3438 13.7936 20.6795 13.7936 21.0938C13.7936 21.508 14.1413 21.8438 14.5703 21.8438H17.1594C17.5884 21.8438 17.9362 21.508 17.9362 21.0938C17.9362 20.6795 17.5884 20.3438 17.1594 20.3438Z" stroke="white" stroke-width="0.76325" stroke-linecap="round" stroke-linejoin="round"/>
<path d="M21.0431 12.3438H17.4183V13.8438H21.0431V12.3438Z" stroke="white" stroke-width="0.76325" stroke-linecap="round" stroke-linejoin="round"/>
<path d="M17.4183 17.8438H14.3114V19.3438H17.4183V17.8438Z" stroke="white" stroke-width="0.508833" stroke-linecap="round" stroke-linejoin="round"/>
</svg>
