<svg width="36" height="32" viewBox="0 0 36 32" fill="none" xmlns="http://www.w3.org/2000/svg">
<mask id="mask0_345_13885" style="mask-type:luminance" maskUnits="userSpaceOnUse" x="0" y="0" width="36" height="32">
<path d="M0.391479 0.470703H35.8961V31.6123H0.391479V0.470703Z" fill="white"/>
</mask>
<g mask="url(#mask0_345_13885)">
<path d="M-8.48438 0.470703H44.7733V31.613H-8.48438V0.470703Z" fill="#000066"/>
<path d="M-8.48438 0.470703V3.95249L38.8191 31.6131H44.7733V28.1314L-2.53019 0.470703H-8.48438ZM44.7733 0.470703V3.95242L-2.53019 31.613H-8.48438V28.1312L38.8191 0.470703H44.7733Z" fill="white"/>
<path d="M13.7063 0.470703V31.613H22.5826V0.470703H13.7063ZM-8.48438 10.8515V21.2322H44.7733V10.8515H-8.48438Z" fill="white"/>
<path d="M-8.48438 12.9276V19.1561H44.7733V12.9276H-8.48438ZM15.4816 0.470703V31.613H20.8073V0.470703H15.4816ZM-8.48438 31.613L9.26818 21.2322H13.2377L-4.51488 31.613H-8.48438ZM-8.48438 0.470703L9.26818 10.8515H5.29869L-8.48438 2.79197V0.470703ZM23.0512 10.8515L40.8038 0.470703H44.7733L27.0207 10.8515H23.0512ZM44.7733 31.613L27.0207 21.2322H30.9902L44.7733 29.2918V31.613Z" fill="#CC0000"/>
</g>
</svg>
