<svg width="48" height="47" viewBox="0 0 48 47" fill="none" xmlns="http://www.w3.org/2000/svg">
<path d="M24.0871 0.582031C11.3556 0.582031 0.998535 10.9395 0.998535 23.6706C0.998535 36.4021 11.3556 46.7601 24.0871 46.7601C36.8178 46.7601 47.1758 36.4021 47.1758 23.6706C47.1758 10.9395 36.8178 0.582031 24.0871 0.582031ZM30.6126 15.1574C30.6126 15.2667 30.5692 15.3716 30.4919 15.4489C30.4146 15.5262 30.3097 15.5696 30.2004 15.5696L27.5758 15.5713C25.844 15.5713 25.5275 16.2457 25.5275 17.5739V20.3292H30.0289C30.1472 20.3292 30.2602 20.3803 30.3381 20.4693C30.416 20.5584 30.4523 20.6767 30.4379 20.7941L29.7968 25.7544C29.784 25.8538 29.7354 25.9451 29.6602 26.0113C29.5849 26.0774 29.4881 26.1139 29.3879 26.1139H25.5275V38.4307C25.5275 38.54 25.484 38.6449 25.4067 38.7222C25.3294 38.7995 25.2246 38.8429 25.1152 38.8429H19.9938C19.8844 38.8429 19.7796 38.7995 19.7023 38.7222C19.625 38.6449 19.5815 38.54 19.5815 38.4307V26.1139H15.7087C15.5994 26.1139 15.4945 26.0705 15.4172 25.9931C15.3399 25.9158 15.2965 25.811 15.2965 25.7017V20.7414C15.2965 20.6321 15.3399 20.5272 15.4172 20.4499C15.4945 20.3726 15.5994 20.3292 15.7087 20.3292H19.5815V17.0829C19.5815 12.7834 22.1835 10.113 26.3729 10.113C28.1739 10.113 29.7655 10.247 30.2544 10.3117C30.3535 10.3248 30.4445 10.3735 30.5104 10.4486C30.5762 10.5238 30.6126 10.6203 30.6126 10.7202V15.1574Z" fill="#171717"/>
<path d="M30.6126 15.1574C30.6126 15.2667 30.5692 15.3716 30.4919 15.4489C30.4146 15.5262 30.3097 15.5696 30.2004 15.5696L27.5758 15.5713C25.844 15.5713 25.5275 16.2457 25.5275 17.5739V20.3292H30.0289C30.1472 20.3292 30.2602 20.3803 30.3381 20.4693C30.416 20.5584 30.4523 20.6767 30.4379 20.7941L29.7968 25.7544C29.784 25.8538 29.7354 25.9451 29.6602 26.0113C29.5849 26.0774 29.4881 26.1139 29.3879 26.1139H25.5275V38.4307C25.5275 38.54 25.484 38.6449 25.4067 38.7222C25.3294 38.7995 25.2246 38.8429 25.1152 38.8429H19.9938C19.8844 38.8429 19.7796 38.7995 19.7023 38.7222C19.625 38.6449 19.5815 38.54 19.5815 38.4307V26.1139H15.7087C15.5994 26.1139 15.4945 26.0705 15.4172 25.9931C15.3399 25.9158 15.2965 25.811 15.2965 25.7017V20.7414C15.2965 20.6321 15.3399 20.5272 15.4172 20.4499C15.4945 20.3726 15.5994 20.3292 15.7087 20.3292H19.5815V17.0829C19.5815 12.7834 22.1835 10.113 26.3729 10.113C28.1739 10.113 29.7655 10.247 30.2544 10.3117C30.3535 10.3248 30.4445 10.3735 30.5104 10.4486C30.5762 10.5238 30.6126 10.6203 30.6126 10.7202V15.1574Z" fill="white"/>
</svg>
