<svg width="207" height="37" viewBox="0 0 207 37" fill="none" xmlns="http://www.w3.org/2000/svg">
<g clip-path="url(#clip0_581_8175)">
<path d="M21.0438 1.34277H16.4727V4.93441H21.0438V1.34277Z" fill="white"/>
<path d="M21.0436 7.41602H13.8604V11.0077H21.0436V7.41602Z" fill="white"/>
<path d="M21.0435 13.4883H10.2686V17.0799H21.0435V13.4883Z" fill="white"/>
<path d="M21.0436 19.5615H7.33008V23.1532H21.0436V19.5615Z" fill="white"/>
<path d="M21.0434 25.6348H3.73828V29.2264H21.0434V25.6348Z" fill="white"/>
<path d="M21.0436 31.708H0.799805V35.2996H21.0436V31.708Z" fill="white"/>
<path d="M41.679 1.10742H23.5771V4.93415H48.4999C47.786 3.76539 46.7838 2.79965 45.5894 2.12956C44.3951 1.45947 43.0485 1.1075 41.679 1.10742Z" fill="white"/>
<path d="M23.5771 17.0868H42.0023C43.269 17.0351 44.5052 16.6823 45.6084 16.0578C46.7117 15.4332 47.6503 14.5547 48.3464 13.4951H23.5771V17.0868Z" fill="white"/>
<path d="M23.5771 11.0463H49.45C49.609 10.4054 49.689 9.7475 49.6884 9.08721C49.6874 8.51423 49.6261 7.94295 49.5055 7.38281H23.5771V11.0463Z" fill="white"/>
<path d="M23.5771 35.43H41.679C43.0339 35.4298 44.3665 35.0846 45.5512 34.4271C46.7359 33.7697 47.7338 32.8215 48.4509 31.6719H23.5771V35.43Z" fill="white"/>
<path d="M23.5771 23.1829H49.4141C49.0537 21.807 48.3323 20.5524 47.3244 19.5488H23.5771V23.1829Z" fill="white"/>
<path d="M23.5771 29.2198H49.4696C49.6035 28.635 49.6714 28.037 49.672 27.4371V25.6445H23.5771V29.2198Z" fill="white"/>
<path d="M69.9086 21.7531C70.2408 22.0196 70.5054 22.3608 70.6807 22.7489C70.856 23.137 70.9372 23.561 70.9176 23.9865C70.943 24.6375 70.7409 25.277 70.3462 25.7953C69.9314 26.2963 69.3533 26.635 68.7136 26.752C69.49 26.8174 70.2151 27.166 70.751 27.7316C71.2482 28.3028 71.5097 29.0416 71.4824 29.7984C71.5036 30.2663 71.411 30.7323 71.2125 31.1566C71.014 31.5808 70.7156 31.9506 70.3429 32.2342C69.5854 32.811 68.5329 33.1005 67.1855 33.1027H62.1572V20.9434H67.1137C68.3022 20.9434 69.2338 21.2133 69.9086 21.7531ZM69.0173 25.7529C69.2503 25.557 69.4344 25.3096 69.5551 25.0302C69.6759 24.7508 69.7298 24.4471 69.7127 24.1432C69.728 23.8462 69.673 23.5497 69.5521 23.278C69.4313 23.0062 69.248 22.7668 69.0173 22.5792C68.4475 22.1757 67.7541 21.9851 67.0582 22.0404H63.3098V26.3178H67.0614C67.7589 26.3599 68.4496 26.1604 69.0173 25.7529ZM69.4319 31.4212C69.7049 31.2253 69.9249 30.9645 70.0719 30.6624C70.219 30.3603 70.2886 30.0263 70.2743 29.6906C70.2876 29.3581 70.2168 29.0275 70.0684 28.7296C69.92 28.4317 69.6988 28.176 69.4254 27.9862C68.7196 27.5433 67.8934 27.331 67.0614 27.3789H63.3098V32.0383H67.0614C68.0834 32.0383 68.8703 31.8326 69.4319 31.4212Z" fill="white"/>
<path d="M81.1576 24.0059V33.1156H80.0017V30.941C79.7479 31.6084 79.2911 32.1794 78.6957 32.5736C78.0582 32.9596 77.3251 33.1587 76.5799 33.1482C76.1242 33.1733 75.6683 33.1016 75.2423 32.9379C74.8163 32.7741 74.4297 32.522 74.1082 32.1981C73.5139 31.5668 73.2168 30.6961 73.2168 29.586V24.0059H74.3727V29.3247C74.3474 29.6897 74.3944 30.0561 74.5109 30.403C74.6274 30.7498 74.8113 31.0702 75.0518 31.3459C75.2988 31.5928 75.5952 31.7847 75.9216 31.9091C76.2479 32.0334 76.5969 32.0874 76.9456 32.0675C77.3704 32.0827 77.793 32.0005 78.1813 31.8274C78.5695 31.6542 78.913 31.3946 79.1855 31.0683C79.7559 30.3318 80.0453 29.4162 80.0017 28.4856V24.0059H81.1576Z" fill="white"/>
<path d="M87.286 25.1099C86.8831 24.9908 86.4654 24.9293 86.0453 24.9271C85.5673 24.9013 85.0921 25.0147 84.6772 25.2536C84.5095 25.3625 84.3734 25.5137 84.2828 25.692C84.1923 25.8703 84.1503 26.0694 84.1613 26.269C84.1553 26.4091 84.177 26.549 84.2252 26.6807C84.2734 26.8124 84.3471 26.9333 84.4421 27.0364C84.6394 27.2405 84.876 27.4027 85.1376 27.5131C85.5172 27.6705 85.9053 27.8067 86.3 27.9212C86.8105 28.0694 87.3101 28.2527 87.7954 28.4697C88.1776 28.651 88.5128 28.9181 88.7749 29.2501C89.0613 29.6397 89.2054 30.1156 89.1831 30.5986C89.2018 30.965 89.1275 31.3302 88.967 31.6602C88.8066 31.9902 88.5653 32.2742 88.2656 32.4859C87.5909 32.9376 86.7914 33.166 85.98 33.1389C85.343 33.1421 84.7105 33.0315 84.1123 32.8124C83.546 32.6142 83.03 32.2943 82.6006 31.8753L83.061 31.0394C83.874 31.7806 84.9321 32.1957 86.0322 32.205C86.5492 32.2278 87.0611 32.0947 87.5015 31.823C87.6849 31.7029 87.8337 31.537 87.9334 31.3417C88.033 31.1465 88.08 30.9286 88.0697 30.7096C88.0824 30.4078 87.9796 30.1124 87.7823 29.8835C87.581 29.6659 87.3332 29.4963 87.0575 29.3872C86.7669 29.2632 86.3685 29.1228 85.8592 28.9595C85.3562 28.8096 84.8642 28.6252 84.3866 28.4077C84.0133 28.2358 83.6864 27.9772 83.4332 27.6535C83.1109 27.1689 82.9821 26.5811 83.0722 26.0062C83.1623 25.4313 83.4647 24.9111 83.9197 24.5483C84.5662 24.1247 85.3284 23.9125 86.1008 23.941C86.6013 23.9395 87.0994 24.0098 87.5799 24.15C88.0299 24.2776 88.4588 24.4701 88.8533 24.7214L88.4092 25.6095C88.0608 25.3898 87.6825 25.2216 87.286 25.1099Z" fill="white"/>
<path d="M91.8409 20.7969C91.9148 20.8748 91.9725 20.9665 92.0106 21.0668C92.0487 21.1672 92.0665 21.2741 92.063 21.3814C92.068 21.6009 91.9858 21.8134 91.8344 21.9724C91.7646 22.0492 91.6793 22.1104 91.5843 22.152C91.4892 22.1937 91.3864 22.2148 91.2826 22.214C91.1761 22.2165 91.0704 22.1962 90.9724 22.1545C90.8744 22.1129 90.7865 22.0508 90.7145 21.9724C90.5622 21.8137 90.4788 21.6012 90.4826 21.3814C90.4802 21.2734 90.4994 21.166 90.5392 21.0656C90.5791 20.9652 90.6386 20.8738 90.7145 20.7969C90.7873 20.72 90.8756 20.6594 90.9735 20.6188C91.0714 20.5783 91.1767 20.5589 91.2826 20.5618C91.387 20.5588 91.4909 20.5783 91.5872 20.6188C91.6835 20.6594 91.77 20.7201 91.8409 20.7969ZM90.7047 24.0065H91.8409V33.1162H90.7047V24.0065Z" fill="white"/>
<path d="M101.414 24.9168C101.73 25.2712 101.972 25.6843 102.128 26.1325C102.284 26.5807 102.35 27.0552 102.322 27.5289V33.1286H101.166V27.7966C101.205 27.0642 100.955 26.3457 100.471 25.7951C100.217 25.5446 99.9136 25.3501 99.5801 25.2242C99.2466 25.0982 98.8904 25.0435 98.5345 25.0637C98.1278 25.0507 97.7228 25.121 97.3443 25.2703C96.9658 25.4197 96.6219 25.645 96.3338 25.9323C95.7615 26.56 95.4286 27.3692 95.3934 28.2178V33.1155H94.2539V24.0058H95.3934V26.1216C95.662 25.4589 96.1342 24.8986 96.7419 24.5217C97.401 24.1467 98.1485 23.955 98.9067 23.9667C99.3678 23.942 99.8289 24.0137 100.261 24.1773C100.692 24.3409 101.085 24.5928 101.414 24.9168Z" fill="white"/>
<path d="M111.425 25.3184C112.15 26.2174 112.484 27.4255 112.427 28.9427H105.006C105.047 29.8334 105.424 30.6756 106.06 31.3001C106.367 31.5945 106.729 31.8251 107.125 31.9787C107.521 32.1323 107.944 32.2057 108.369 32.1948C108.912 32.1952 109.45 32.0841 109.949 31.8682C110.426 31.6648 110.855 31.3621 111.206 30.9801L111.859 31.6332C111.428 32.1088 110.899 32.4853 110.308 32.7368C109.676 33.0029 108.996 33.1363 108.31 33.1286C107.51 33.1413 106.72 32.9395 106.024 32.5441C105.358 32.1576 104.814 31.592 104.454 30.9116C104.08 30.1749 103.886 29.3605 103.886 28.5346C103.886 27.7086 104.08 26.8942 104.454 26.1575C104.814 25.4766 105.358 24.9108 106.024 24.525C106.712 24.1335 107.492 23.9328 108.284 23.9438C109.655 23.9612 110.702 24.4194 111.425 25.3184ZM111.409 28.0383C111.4 27.1872 111.07 26.3708 110.485 25.7527C110.194 25.4698 109.85 25.2491 109.471 25.1042C109.093 24.9594 108.689 24.8934 108.284 24.9103C107.87 24.9025 107.459 24.9767 107.074 25.1286C106.689 25.2805 106.338 25.507 106.041 25.7951C105.428 26.3943 105.059 27.1993 105.006 28.0546L111.409 28.0383Z" fill="white"/>
<path d="M117.733 25.1099C117.33 24.9911 116.913 24.9295 116.492 24.927C116.014 24.9013 115.539 25.0147 115.124 25.2536C114.956 25.362 114.82 25.5131 114.729 25.6915C114.638 25.8699 114.597 26.0692 114.609 26.269C114.602 26.4091 114.624 26.549 114.672 26.6807C114.721 26.8124 114.794 26.9332 114.889 27.0363C115.087 27.2405 115.323 27.4026 115.585 27.513C115.964 27.671 116.352 27.8072 116.747 27.9212C117.258 28.0699 117.757 28.2532 118.243 28.4697C118.625 28.651 118.96 28.9181 119.222 29.2501C119.518 29.6406 119.67 30.1219 119.65 30.6116C119.669 30.9781 119.595 31.3436 119.435 31.6737C119.274 32.0037 119.033 32.2877 118.732 32.4989C118.058 32.9518 117.258 33.1803 116.447 33.1519C115.81 33.1551 115.177 33.0445 114.579 32.8254C114.013 32.6272 113.497 32.3073 113.067 31.8883L113.528 31.0524C113.925 31.4203 114.388 31.7095 114.893 31.9046C115.402 32.1148 115.948 32.2257 116.499 32.2311C117.016 32.2539 117.528 32.1208 117.968 31.8491C118.152 31.729 118.301 31.5631 118.4 31.3678C118.5 31.1725 118.547 30.9547 118.536 30.7357C118.549 30.4338 118.446 30.1385 118.249 29.9096C118.045 29.68 117.79 29.5012 117.505 29.3872C117.214 29.2631 116.816 29.1227 116.306 28.9595C115.808 28.809 115.32 28.6246 114.847 28.4077C114.474 28.2358 114.147 27.9772 113.893 27.6534C113.618 27.2757 113.48 26.8145 113.505 26.3474C113.484 25.9965 113.553 25.6462 113.706 25.3295C113.858 25.0129 114.089 24.7406 114.377 24.5385C115.025 24.1152 115.788 23.9031 116.561 23.9312C117.061 23.9292 117.558 23.9996 118.037 24.1402C118.493 24.2734 118.926 24.4737 119.323 24.7344L118.879 25.6225C118.525 25.3963 118.138 25.2236 117.733 25.1099Z" fill="white"/>
<path d="M125.06 25.1102C124.657 24.9913 124.239 24.9298 123.819 24.9273C123.341 24.9016 122.866 25.015 122.451 25.2538C122.281 25.3633 122.143 25.5166 122.053 25.6975C121.962 25.8784 121.921 26.0804 121.935 26.2823C121.924 26.5646 122.023 26.8402 122.213 27.0496C122.413 27.2535 122.652 27.4156 122.915 27.5264C123.294 27.6843 123.682 27.8206 124.077 27.9345C124.588 28.0832 125.087 28.2665 125.573 28.483C125.956 28.6631 126.291 28.9304 126.552 29.2634C126.84 29.6524 126.984 30.1288 126.96 30.6119C126.98 30.9784 126.906 31.3438 126.745 31.6739C126.585 32.004 126.343 32.2879 126.043 32.4991C125.369 32.9521 124.569 33.1806 123.757 33.1522C123.12 33.1554 122.488 33.0448 121.89 32.8257C121.323 32.6275 120.807 32.3076 120.378 31.8886L120.838 31.0527C121.235 31.4205 121.698 31.7097 122.203 31.9049C122.713 32.1151 123.258 32.2259 123.81 32.2314C124.327 32.2541 124.838 32.121 125.279 31.8494C125.466 31.7283 125.618 31.5597 125.719 31.3606C125.82 31.1615 125.867 30.9392 125.854 30.7164C125.865 30.4148 125.762 30.12 125.566 29.8903C125.362 29.6681 125.11 29.496 124.828 29.3875C124.541 29.2634 124.143 29.123 123.633 28.9597C123.134 28.8087 122.645 28.6243 122.17 28.4079C121.799 28.2352 121.473 27.9767 121.22 27.6537C120.945 27.276 120.807 26.8147 120.832 26.3476C120.811 25.9968 120.88 25.6464 121.032 25.3298C121.185 25.0132 121.416 24.7409 121.704 24.5388C122.356 24.1222 123.121 23.9181 123.894 23.9543C124.394 23.9523 124.891 24.0227 125.37 24.1633C125.821 24.2896 126.25 24.4822 126.644 24.7347L126.203 25.6228C125.849 25.3968 125.464 25.2241 125.06 25.1102Z" fill="white"/>
<path d="M142.45 33.1157L141.04 29.8832H134.451L133.06 33.1157H131.803L137.151 20.9629H138.375L143.724 33.1157H142.45ZM134.911 28.8025H140.583L137.729 22.233L134.911 28.8025Z" fill="white"/>
<path d="M148.252 24.9957C147.65 24.9868 147.057 25.1438 146.538 25.4495C146.03 25.7488 145.616 26.1857 145.346 26.7099C145.056 27.2833 144.91 27.9188 144.922 28.5612C144.911 29.2067 145.057 29.8452 145.346 30.4223C145.615 30.949 146.029 31.3884 146.538 31.6892C147.057 31.9949 147.65 32.152 148.252 32.1431C148.798 32.146 149.339 32.0347 149.839 31.8165C150.31 31.6168 150.727 31.3066 151.054 30.9121L151.707 31.6076C151.305 32.0972 150.792 32.4844 150.211 32.7373C149.579 33.0117 148.896 33.1486 148.206 33.1389C147.406 33.1534 146.616 32.9515 145.921 32.5545C145.255 32.1673 144.711 31.6018 144.35 30.9219C143.977 30.1863 143.782 29.3731 143.782 28.5482C143.782 27.7232 143.977 26.91 144.35 26.1744C144.711 25.4941 145.255 24.9285 145.921 24.5418C146.617 24.1473 147.406 23.9466 148.206 23.9607C148.854 23.953 149.498 24.0717 150.1 24.31C150.653 24.5304 151.153 24.8641 151.569 25.2896L150.916 26.0699C150.568 25.7198 150.152 25.4441 149.694 25.2594C149.237 25.0748 148.746 24.9851 148.252 24.9957Z" fill="white"/>
<path d="M159.158 33.1162L159.138 31.5848C158.804 32.1062 158.327 32.5201 157.764 32.7766C157.147 33.0487 156.478 33.1825 155.805 33.1684C155.255 33.1806 154.71 33.0584 154.218 32.8125C153.778 32.5937 153.41 32.2539 153.157 31.833C152.904 31.4076 152.774 30.9205 152.781 30.4257C152.767 30.0663 152.84 29.7089 152.996 29.3845C153.151 29.0602 153.383 28.7787 153.672 28.5646C154.394 28.074 155.257 27.8352 156.128 27.8854H159.115V27.1867C159.134 26.8801 159.088 26.5731 158.98 26.2856C158.872 25.9981 158.704 25.7366 158.488 25.5182C157.976 25.0915 157.319 24.8796 156.653 24.9272C155.602 24.9647 154.593 25.3494 153.783 26.021L153.281 25.2211C153.809 24.8326 154.385 24.5144 154.995 24.2742C155.595 24.0623 156.229 23.9594 156.866 23.9705C157.941 23.9705 158.773 24.2459 159.36 24.7966C159.661 25.0939 159.897 25.4507 160.052 25.8443C160.207 26.2379 160.279 26.6595 160.261 27.0822V33.1162H159.158ZM158.028 31.6305C158.579 31.2513 158.973 30.6851 159.138 30.0371V28.7866H156.268C155.648 28.7481 155.029 28.8874 154.485 29.1882C154.287 29.3158 154.125 29.4941 154.018 29.7047C153.911 29.9152 153.861 30.1506 153.875 30.3865C153.867 30.6343 153.915 30.8807 154.016 31.107C154.118 31.3333 154.269 31.5335 154.459 31.6926C154.901 32.0395 155.453 32.2157 156.014 32.1889C156.723 32.2114 157.423 32.0165 158.018 31.6305H158.028Z" fill="white"/>
<path d="M170.851 20.2158V33.1163H169.715V31.0201C169.405 31.6771 168.915 32.2321 168.301 32.62C167.654 33.0067 166.912 33.2026 166.159 33.1849C165.372 33.1994 164.596 32.9948 163.919 32.5939C163.26 32.2019 162.729 31.6282 162.388 30.9418C162.017 30.197 161.831 29.3738 161.846 28.5419C161.83 27.715 162.019 26.8972 162.397 26.1616C162.748 25.4878 163.276 24.923 163.926 24.5291C164.596 24.1313 165.363 23.9268 166.143 23.9381C166.899 23.9225 167.644 24.1218 168.291 24.5127C168.912 24.8992 169.41 25.454 169.728 26.1126V20.2354L170.851 20.2158ZM168.082 31.7156C168.592 31.4095 169.007 30.9674 169.28 30.4389C169.566 29.859 169.715 29.2211 169.715 28.5745C169.715 27.928 169.566 27.2901 169.28 26.7102C169.067 26.3109 168.776 25.9589 168.423 25.6755C168.07 25.392 167.664 25.1829 167.228 25.0609C166.792 24.9388 166.336 24.9063 165.888 24.9653C165.439 25.0243 165.007 25.1736 164.618 25.4041C164.105 25.7219 163.688 26.1734 163.413 26.7102C163.126 27.2898 162.977 27.9278 162.977 28.5745C162.977 29.2213 163.126 29.8592 163.413 30.4389C163.689 30.9687 164.107 31.4109 164.621 31.7156C165.142 32.0227 165.737 32.1819 166.342 32.176C166.953 32.1872 167.556 32.0278 168.082 31.7156Z" fill="white"/>
<path d="M180.172 25.3184C180.897 26.2174 181.231 27.4255 181.174 28.9427H173.753C173.793 29.833 174.169 30.6752 174.804 31.3001C175.111 31.5944 175.474 31.825 175.87 31.9786C176.267 32.1321 176.691 32.2056 177.116 32.1947C177.659 32.1956 178.197 32.0844 178.696 31.8682C179.174 31.6656 179.603 31.3627 179.953 30.9801L180.606 31.6331C180.173 32.1082 179.643 32.4845 179.052 32.7367C178.421 33.0029 177.742 33.1363 177.057 33.1286C176.257 33.1411 175.468 32.9393 174.771 32.5441C174.106 32.1566 173.562 31.5913 173.201 30.9115C172.827 30.1748 172.633 29.3605 172.633 28.5345C172.633 27.7086 172.827 26.8942 173.201 26.1575C173.561 25.4772 174.106 24.9116 174.771 24.525C175.46 24.1337 176.239 23.9331 177.031 23.9438C178.394 23.9612 179.441 24.4194 180.172 25.3184ZM180.156 28.0382C180.146 27.1867 179.815 26.3703 179.228 25.7526C178.938 25.4697 178.593 25.2491 178.215 25.1042C177.837 24.9594 177.432 24.8934 177.028 24.9102C176.614 24.9028 176.204 24.9771 175.819 25.129C175.435 25.2808 175.084 25.5072 174.788 25.7951C174.173 26.3927 173.804 27.1986 173.753 28.0546L180.156 28.0382Z" fill="white"/>
<path d="M196.642 24.9104C197.229 25.534 197.523 26.4058 197.523 27.5225V33.1221H196.38V27.7967C196.426 27.0571 196.18 26.329 195.695 25.7691C195.447 25.5233 195.15 25.3322 194.824 25.2079C194.498 25.0836 194.149 25.029 193.801 25.0475C193.377 25.0381 192.956 25.1238 192.57 25.2984C192.183 25.473 191.841 25.732 191.568 26.0564C191.001 26.7907 190.715 27.703 190.761 28.6293V33.1156H189.605V27.7967C189.652 27.0565 189.404 26.3278 188.916 25.7691C188.669 25.5228 188.372 25.3313 188.046 25.207C187.72 25.0827 187.371 25.0284 187.023 25.0475C186.598 25.0385 186.176 25.1244 185.789 25.2989C185.401 25.4734 185.057 25.7322 184.783 26.0564C184.21 26.7881 183.92 27.7015 183.966 28.6293V33.1156H182.83V24.0059H183.966V26.1446C184.215 25.4741 184.673 24.9015 185.272 24.512C185.919 24.1367 186.657 23.9448 187.405 23.9569C188.163 23.9318 188.908 24.1618 189.52 24.61C190.094 25.0613 190.488 25.7028 190.63 26.4188C190.848 25.6809 191.308 25.0379 191.937 24.5936C192.604 24.1713 193.38 23.9534 194.17 23.9667C194.625 23.94 195.081 24.0102 195.507 24.1729C195.933 24.3356 196.32 24.587 196.642 24.9104Z" fill="white"/>
<path d="M201.249 36.0019C200.815 36.3564 200.271 36.5471 199.711 36.5407C199.045 36.549 198.397 36.3276 197.876 35.9138L198.385 35.0093C198.756 35.2803 199.203 35.4266 199.662 35.4273C200.022 35.4275 200.37 35.2976 200.642 35.0616C200.968 34.7729 201.219 34.4085 201.373 34.0004L201.745 33.0633L198.065 24.0059H199.27L202.326 31.8422L205.265 24.0059H206.437L202.326 34.4183C202.113 35.0317 201.741 35.5779 201.249 36.0019Z" fill="white"/>
<path d="M67.4765 3.09665V12.9084H64.9297V3.11297H61.6973V0.749023H70.709V3.09665H67.4765Z" fill="white"/>
<path d="M74.2252 7.8634V12.908H71.7764V0.000976562H74.2252V4.59501C74.5292 4.22769 74.9088 3.93022 75.3382 3.72287C75.7675 3.51552 76.2365 3.40316 76.7132 3.39344C77.154 3.38759 77.5906 3.47807 77.9927 3.65854C78.3949 3.83901 78.7527 4.10513 79.0413 4.43828C79.6996 5.21118 80.0383 6.20613 79.9882 7.22017V12.908H77.5295V7.79483C77.5295 6.356 77.0343 5.63658 76.0439 5.63658C75.8039 5.63818 75.5668 5.68948 75.3477 5.78727C75.1285 5.88505 74.932 6.02719 74.7705 6.20472C74.3789 6.66507 74.1832 7.26048 74.2252 7.8634Z" fill="white"/>
<path d="M89.3827 11.5526C88.936 12.0298 88.3959 12.41 87.796 12.6695C87.1961 12.9291 86.5492 13.0623 85.8955 13.0611C85.2847 13.0812 84.6762 12.9757 84.1078 12.751C83.5394 12.5264 83.0232 12.1874 82.5912 11.755C81.7205 10.8843 81.2852 9.70998 81.2852 8.23197C81.2852 6.75395 81.7281 5.58286 82.6141 4.71869C83.4367 3.90574 84.5387 3.43776 85.6949 3.41045C86.8511 3.38313 87.9741 3.79856 88.8341 4.57176C89.6787 5.34886 90.101 6.41547 90.101 7.77159V9.14294H83.7013C83.7362 9.39111 83.8207 9.62972 83.9497 9.84456C84.0787 10.0594 84.2497 10.2461 84.4523 10.3935C84.8619 10.7145 85.3687 10.8861 85.889 10.88C86.2885 10.8908 86.6856 10.814 87.0522 10.6549C87.4189 10.4959 87.7463 10.2584 88.0113 9.95922L89.3827 11.5526ZM87.0318 6.00189C86.6922 5.7009 86.2512 5.53987 85.7976 5.5513C85.3144 5.55164 84.8458 5.7163 84.4687 6.01821C84.2707 6.1704 84.1063 6.36171 83.9855 6.58023C83.8647 6.79874 83.7902 7.03979 83.7667 7.28835H87.6195C87.5951 6.8002 87.3848 6.3399 87.0318 6.00189Z" fill="white"/>
<path d="M104.059 12.9084L102.998 10.2963H98.2146L97.1534 12.9084H94.4434L99.3737 0.749023H101.839L106.769 12.9084H104.059ZM100.614 4.36678L99.1778 7.89965H102.035L100.614 4.36678Z" fill="white"/>
<path d="M109.339 12.9084L105.861 3.53418H108.408L110.596 9.431L112.793 3.53418H115.34L111.853 12.9084H109.339Z" fill="white"/>
<path d="M121.87 8.59442V3.5498H124.336V12.9077H121.87V11.6734C121.261 12.5986 120.474 13.0611 119.51 13.0611C119.061 13.0704 118.614 12.9883 118.198 12.82C117.781 12.6516 117.403 12.4004 117.087 12.0816C116.434 11.4286 116.107 10.4751 116.107 9.22133V3.5498H118.573V8.64667C118.573 10.0833 119.066 10.8049 120.058 10.8049C120.298 10.8055 120.536 10.7556 120.755 10.6582C120.975 10.5609 121.171 10.4184 121.332 10.24C121.719 9.78253 121.912 9.19218 121.87 8.59442Z" fill="white"/>
<path d="M128.669 7.69081V12.915H126.22V3.55063H128.669V4.59547C128.974 4.22774 129.356 3.93011 129.787 3.72278C130.218 3.51546 130.688 3.40329 131.166 3.39391C131.607 3.38717 132.044 3.47724 132.446 3.65777C132.849 3.8383 133.206 4.1049 133.494 4.43875C134.147 5.21441 134.482 6.20827 134.432 7.22063V12.9085H131.983V7.62224C131.983 6.18341 131.487 5.464 130.497 5.464C130.256 5.46347 130.018 5.51347 129.797 5.61076C129.577 5.70806 129.379 5.85049 129.217 6.02886C129.021 6.25627 128.872 6.52009 128.777 6.80525C128.683 7.09042 128.646 7.39134 128.669 7.69081Z" fill="white"/>
<path d="M143.671 12.9084H141.369V11.7787C141.114 12.1685 140.766 12.4894 140.358 12.7132C139.949 12.937 139.491 13.0567 139.025 13.0619C138.163 13.0873 137.324 12.7785 136.684 12.1999C136.369 11.9107 136.122 11.5563 135.958 11.1616C135.795 10.7668 135.719 10.3412 135.737 9.91429C135.709 9.50303 135.784 9.09133 135.955 8.71628C136.126 8.34122 136.388 8.0146 136.717 7.76584C137.37 7.28913 138.262 7.05077 139.394 7.05077H141.222V7.0018C141.222 6.00267 140.727 5.5031 139.737 5.5031C139.275 5.51096 138.818 5.60279 138.388 5.77411C137.955 5.93074 137.551 6.15681 137.19 6.44346L136.096 4.75539C137.222 3.87218 138.616 3.3999 140.047 3.41669C140.992 3.37615 141.92 3.67884 142.659 4.26889C143.332 4.83702 143.671 5.73493 143.671 6.96588V12.9084ZM141.2 9.34289V8.89231H139.665C138.685 8.89231 138.196 9.21882 138.196 9.87184C138.187 10.0195 138.214 10.167 138.275 10.3018C138.336 10.4366 138.429 10.5546 138.545 10.6457C138.842 10.8434 139.195 10.9386 139.551 10.9167C139.973 10.9204 140.383 10.7681 140.7 10.489C140.865 10.3487 140.996 10.1725 141.083 9.97384C141.169 9.7752 141.209 9.55937 141.2 9.34289Z" fill="white"/>
</g>
<defs>
<clipPath id="clip0_581_8175">
<rect width="205.638" height="36.54" fill="white" transform="translate(0.799805 0.000976562)"/>
</clipPath>
</defs>
</svg>
