<svg width="90" height="90" viewBox="0 0 90 90" fill="none" xmlns="http://www.w3.org/2000/svg">
<path d="M2.8125 7.03125H87.1875V15.4688H2.8125V7.03125ZM62.2371 74.5312L48.1447 49.8832C47.8528 49.2991 47.404 48.8078 46.8485 48.4645C46.2931 48.1212 45.653 47.9393 45 47.9393C44.347 47.9393 43.7069 48.1212 43.1515 48.4645C42.596 48.8078 42.1472 49.2991 41.8553 49.8832L27.7629 74.5312L25.0436 79.2879C24.7757 79.8239 24.6493 80.4194 24.6764 81.018C24.7034 81.6166 24.883 82.1983 25.198 82.708C25.5131 83.2176 25.9532 83.6383 26.4765 83.9301C26.9999 84.2218 27.5891 84.375 28.1883 84.375H61.8117C62.4109 84.375 63.0001 84.2218 63.5235 83.9301C64.0468 83.6383 64.4869 83.2176 64.802 82.708C65.117 82.1983 65.2966 81.6166 65.3236 81.018C65.3507 80.4194 65.2243 79.8239 64.9564 79.2879L62.2371 74.5312ZM22.5 28.125H67.5V39.375H22.5V28.125Z" fill="#066FE0"/>
<path d="M87.1875 5.625H2.8125C2.43954 5.625 2.08185 5.77316 1.81813 6.03688C1.55441 6.3006 1.40625 6.65829 1.40625 7.03125V74.5312C1.40625 74.9042 1.55441 75.2619 1.81813 75.5256C2.08185 75.7893 2.43954 75.9375 2.8125 75.9375H25.3389L23.8236 78.5883C23.81 78.611 23.7976 78.6345 23.7867 78.6586C23.4113 79.4089 23.234 80.2427 23.2716 81.0808C23.3091 81.919 23.5604 82.7336 24.0014 83.4473C24.4425 84.1609 25.0586 84.75 25.7914 85.1585C26.5242 85.567 27.3493 85.7814 28.1883 85.7812H61.8117C62.6507 85.7814 63.4758 85.567 64.2086 85.1585C64.9414 84.75 65.5575 84.1609 65.9986 83.4473C66.4396 82.7336 66.6909 81.919 66.7284 81.0808C66.766 80.2427 66.5887 79.4089 66.2133 78.6586C66.2024 78.6345 66.19 78.611 66.1764 78.5883L64.6611 75.9375H87.1875C87.5605 75.9375 87.9181 75.7893 88.1819 75.5256C88.4456 75.2619 88.5938 74.9042 88.5938 74.5312V7.03125C88.5938 6.65829 88.4456 6.3006 88.1819 6.03688C87.9181 5.77316 87.5605 5.625 87.1875 5.625ZM63.6064 81.9686C63.4202 82.2771 63.1567 82.5316 62.8419 82.7071C62.5272 82.8825 62.1721 82.9727 61.8117 82.9688H28.1883C27.8316 82.9688 27.4808 82.8783 27.1686 82.706C26.8564 82.5336 26.593 82.2849 26.403 81.983C26.2131 81.6812 26.1027 81.3361 26.0823 80.9801C26.0619 80.624 26.1321 80.2686 26.2863 79.9471L43.077 50.5811C43.0893 50.5582 43.1016 50.5354 43.1139 50.5107C43.2892 50.1607 43.5584 49.8663 43.8916 49.6605C44.2247 49.4548 44.6085 49.3458 45 49.3458C45.3915 49.3458 45.7753 49.4548 46.1084 49.6605C46.4416 49.8663 46.7108 50.1607 46.8861 50.5107C46.8984 50.5354 46.9107 50.5582 46.923 50.5811L63.7137 79.9471C63.8706 80.2649 63.9431 80.6178 63.9244 80.9718C63.9056 81.3258 63.7961 81.6691 63.6064 81.9686ZM85.7812 73.125H63.0527L49.384 49.2152C48.9712 48.4077 48.3434 47.7299 47.5698 47.2566C46.7962 46.7833 45.9069 46.5328 45 46.5328C44.0931 46.5328 43.2038 46.7833 42.4302 47.2566C41.6566 47.7299 41.0288 48.4077 40.616 49.2152L26.9473 73.125H4.21875V16.875H85.7812V73.125ZM85.7812 14.0625H4.21875V8.4375H85.7812V14.0625Z" fill="#A6BCC0"/>
<path d="M7.03125 12.6562H8.4375C8.81046 12.6562 9.16815 12.5081 9.43187 12.2444C9.69559 11.9806 9.84375 11.623 9.84375 11.25C9.84375 10.877 9.69559 10.5194 9.43187 10.2556C9.16815 9.99191 8.81046 9.84375 8.4375 9.84375H7.03125C6.65829 9.84375 6.3006 9.99191 6.03688 10.2556C5.77316 10.5194 5.625 10.877 5.625 11.25C5.625 11.623 5.77316 11.9806 6.03688 12.2444C6.3006 12.5081 6.65829 12.6562 7.03125 12.6562ZM12.6562 12.6562H14.0625C14.4355 12.6562 14.7931 12.5081 15.0569 12.2444C15.3206 11.9806 15.4688 11.623 15.4688 11.25C15.4688 10.877 15.3206 10.5194 15.0569 10.2556C14.7931 9.99191 14.4355 9.84375 14.0625 9.84375H12.6562C12.2833 9.84375 11.9256 9.99191 11.6619 10.2556C11.3982 10.5194 11.25 10.877 11.25 11.25C11.25 11.623 11.3982 11.9806 11.6619 12.2444C11.9256 12.5081 12.2833 12.6562 12.6562 12.6562ZM18.2812 12.6562H19.6875C20.0605 12.6562 20.4181 12.5081 20.6819 12.2444C20.9456 11.9806 21.0938 11.623 21.0938 11.25C21.0938 10.877 20.9456 10.5194 20.6819 10.2556C20.4181 9.99191 20.0605 9.84375 19.6875 9.84375H18.2812C17.9083 9.84375 17.5506 9.99191 17.2869 10.2556C17.0232 10.5194 16.875 10.877 16.875 11.25C16.875 11.623 17.0232 11.9806 17.2869 12.2444C17.5506 12.5081 17.9083 12.6562 18.2812 12.6562ZM45 60.4688C44.627 60.4688 44.2694 60.6169 44.0056 60.8806C43.7419 61.1444 43.5938 61.502 43.5938 61.875V70.3125C43.5938 70.6855 43.7419 71.0431 44.0056 71.3069C44.2694 71.5706 44.627 71.7188 45 71.7188C45.373 71.7188 45.7306 71.5706 45.9944 71.3069C46.2581 71.0431 46.4062 70.6855 46.4062 70.3125V61.875C46.4062 61.502 46.2581 61.1444 45.9944 60.8806C45.7306 60.6169 45.373 60.4688 45 60.4688ZM45 74.5312C44.627 74.5312 44.2694 74.6794 44.0056 74.9431C43.7419 75.2069 43.5938 75.5645 43.5938 75.9375V77.3438C43.5938 77.7167 43.7419 78.0744 44.0056 78.3381C44.2694 78.6018 44.627 78.75 45 78.75C45.373 78.75 45.7306 78.6018 45.9944 78.3381C46.2581 78.0744 46.4062 77.7167 46.4062 77.3438V75.9375C46.4062 75.5645 46.2581 75.2069 45.9944 74.9431C45.7306 74.6794 45.373 74.5312 45 74.5312ZM67.5 26.7188H22.5C22.127 26.7188 21.7694 26.8669 21.5056 27.1306C21.2419 27.3944 21.0938 27.752 21.0938 28.125V39.375C21.0938 39.748 21.2419 40.1056 21.5056 40.3694C21.7694 40.6331 22.127 40.7812 22.5 40.7812H67.5C67.873 40.7812 68.2306 40.6331 68.4944 40.3694C68.7581 40.1056 68.9062 39.748 68.9062 39.375V28.125C68.9062 27.752 68.7581 27.3944 68.4944 27.1306C68.2306 26.8669 67.873 26.7188 67.5 26.7188ZM66.0938 37.9688H23.9062V29.5312H66.0938V37.9688Z" fill="#A6BCC0"/>
<path d="M45 35.1562C45.7767 35.1562 46.4062 34.5267 46.4062 33.75C46.4062 32.9733 45.7767 32.3438 45 32.3438C44.2233 32.3438 43.5938 32.9733 43.5938 33.75C43.5938 34.5267 44.2233 35.1562 45 35.1562Z" fill="#A6BCC0"/>
<path d="M39.375 35.1562C40.1517 35.1562 40.7812 34.5267 40.7812 33.75C40.7812 32.9733 40.1517 32.3438 39.375 32.3438C38.5983 32.3438 37.9688 32.9733 37.9688 33.75C37.9688 34.5267 38.5983 35.1562 39.375 35.1562Z" fill="#A6BCC0"/>
<path d="M33.75 35.1562C34.5267 35.1562 35.1562 34.5267 35.1562 33.75C35.1562 32.9733 34.5267 32.3438 33.75 32.3438C32.9733 32.3438 32.3438 32.9733 32.3438 33.75C32.3438 34.5267 32.9733 35.1562 33.75 35.1562Z" fill="#A6BCC0"/>
<path d="M28.125 35.1562C28.9017 35.1562 29.5312 34.5267 29.5312 33.75C29.5312 32.9733 28.9017 32.3438 28.125 32.3438C27.3483 32.3438 26.7188 32.9733 26.7188 33.75C26.7188 34.5267 27.3483 35.1562 28.125 35.1562Z" fill="#A6BCC0"/>
<path d="M61.875 35.1562C62.6517 35.1562 63.2812 34.5267 63.2812 33.75C63.2812 32.9733 62.6517 32.3438 61.875 32.3438C61.0983 32.3438 60.4688 32.9733 60.4688 33.75C60.4688 34.5267 61.0983 35.1562 61.875 35.1562Z" fill="#A6BCC0"/>
<path d="M56.25 35.1562C57.0267 35.1562 57.6562 34.5267 57.6562 33.75C57.6562 32.9733 57.0267 32.3438 56.25 32.3438C55.4733 32.3438 54.8438 32.9733 54.8438 33.75C54.8438 34.5267 55.4733 35.1562 56.25 35.1562Z" fill="#A6BCC0"/>
<path d="M50.625 35.1562C51.4017 35.1562 52.0312 34.5267 52.0312 33.75C52.0312 32.9733 51.4017 32.3438 50.625 32.3438C49.8483 32.3438 49.2188 32.9733 49.2188 33.75C49.2188 34.5267 49.8483 35.1562 50.625 35.1562Z" fill="#A6BCC0"/>
</svg>
