<svg width="33" height="36" viewBox="0 0 33 36" fill="none" xmlns="http://www.w3.org/2000/svg">
<path d="M24.7656 14.4763C24.7656 12.3546 23.9228 10.3198 22.4225 8.81946C20.9222 7.31917 18.8874 6.47632 16.7656 6.47632C14.6439 6.47632 12.6091 7.31917 11.1088 8.81946C9.60848 10.3198 8.76563 12.3546 8.76563 14.4763C8.76563 23.8097 4.76562 26.4763 4.76562 26.4763H28.7656C28.7656 26.4763 24.7656 23.8097 24.7656 14.4763Z" fill="#343434" stroke="#343434" stroke-width="2.66667" stroke-linecap="round" stroke-linejoin="round"/>
<path d="M19.0723 31.8096C18.8379 32.2137 18.5014 32.5491 18.0966 32.7823C17.6918 33.0154 17.2328 33.1382 16.7657 33.1382C16.2985 33.1382 15.8395 33.0154 15.4347 32.7823C15.0299 32.5491 14.6934 32.2137 14.459 31.8096" stroke="#343434" stroke-width="2.66667" stroke-linecap="round" stroke-linejoin="round"/>
<circle cx="26.6309" cy="6.3252" r="6.13477" fill="#D9D9D9"/>
</svg>
