<svg width="38" height="34" viewBox="0 0 38 34" fill="none" xmlns="http://www.w3.org/2000/svg">
<g clip-path="url(#clip0_345_13913)">
<path d="M27.6307 31.2382C28.3671 31.2382 28.964 30.6412 28.964 29.9049C28.964 29.1685 28.3671 28.5715 27.6307 28.5715C26.8943 28.5715 26.2974 29.1685 26.2974 29.9049C26.2974 30.6412 26.8943 31.2382 27.6307 31.2382Z" stroke="#343434" stroke-width="2.66667" stroke-linecap="round" stroke-linejoin="round"/>
<path d="M12.9642 31.2382C13.7006 31.2382 14.2975 30.6412 14.2975 29.9049C14.2975 29.1685 13.7006 28.5715 12.9642 28.5715C12.2278 28.5715 11.6309 29.1685 11.6309 29.9049C11.6309 30.6412 12.2278 31.2382 12.9642 31.2382Z" stroke="#343434" stroke-width="2.66667" stroke-linecap="round" stroke-linejoin="round"/>
<path d="M2.29736 3.23804H7.6307L11.204 21.0914C11.326 21.7052 11.6599 22.2567 12.1474 22.6491C12.6349 23.0416 13.245 23.25 13.8707 23.238H26.8307C27.4564 23.25 28.0665 23.0416 28.554 22.6491C29.0415 22.2567 29.3754 21.7052 29.4974 21.0914L31.6307 9.9047H8.96403" stroke="#343434" stroke-width="2.66667" stroke-linecap="round" stroke-linejoin="round"/>
</g>
<circle cx="31.6309" cy="6.22998" r="6.13477" fill="#D9D9D9"/>
<defs>
<clipPath id="clip0_345_13913">
<rect width="32" height="32" fill="white" transform="translate(0.964111 1.90479)"/>
</clipPath>
</defs>
</svg>
