<svg width="25" height="24" viewBox="0 0 25 24" fill="none" xmlns="http://www.w3.org/2000/svg">
<g clip-path="url(#clip0_520_989)">
<path d="M23.8175 9.8373C23.9574 10.6427 24.0272 11.4588 24.026 12.2763C24.026 15.9273 22.721 19.0143 20.45 21.1038H20.453C18.467 22.9383 15.737 24.0003 12.5 24.0003C9.3174 24.0003 6.26516 22.736 4.01472 20.4856C1.76428 18.2351 0.5 15.1829 0.5 12.0003C0.5 8.81771 1.76428 5.76546 4.01472 3.51502C6.26516 1.26459 9.3174 0.000303549 12.5 0.000303549C15.4789 -0.034584 18.3558 1.08455 20.528 3.1233L17.102 6.5493C15.8636 5.36877 14.2107 4.72229 12.5 4.7493C9.3695 4.7493 6.71 6.8613 5.762 9.7053C5.25936 11.1956 5.25936 12.8095 5.762 14.2998H5.7665C6.719 17.1393 9.374 19.2513 12.5045 19.2513C14.1215 19.2513 15.5105 18.8373 16.5875 18.1053H16.583C17.2084 17.691 17.7433 17.1543 18.1555 16.5276C18.5678 15.9009 18.8487 15.1971 18.9815 14.4588H12.5V9.8388L23.8175 9.8373Z" fill="#066FE0"/>
</g>
<defs>
<clipPath id="clip0_520_989">
<rect width="24" height="24" fill="white" transform="translate(0.5)"/>
</clipPath>
</defs>
</svg>
