<svg width="24" height="24" viewBox="0 0 24 24" fill="none" xmlns="http://www.w3.org/2000/svg">
<g clipPath="url(#clip0_455_3707)">
<path d="M23.3175 9.83726C23.4574 10.6427 23.5272 11.4588 23.526 12.2763C23.526 15.9273 22.221 19.0143 19.95 21.1038H19.953C17.967 22.9383 15.237 24.0003 12 24.0003C8.8174 24.0003 5.76516 22.736 3.51472 20.4855C1.26428 18.2351 0 15.1829 0 12.0003C0 8.81766 1.26428 5.76541 3.51472 3.51498C5.76516 1.26454 8.8174 0.000257772 12 0.000257772C14.9789 -0.0346298 17.8558 1.08451 20.028 3.12326L16.602 6.54926C15.3636 5.36872 13.7107 4.72224 12 4.74926C8.8695 4.74926 6.21 6.86126 5.262 9.70526C4.75936 11.1955 4.75936 12.8095 5.262 14.2998H5.2665C6.219 17.1393 8.874 19.2513 12.0045 19.2513C13.6215 19.2513 15.0105 18.8373 16.0875 18.1053H16.083C16.7084 17.691 17.2433 17.1543 17.6555 16.5275C18.0678 15.9008 18.3487 15.1971 18.4815 14.4588H12V9.83876L23.3175 9.83726Z" fill="black"/>
</g>
<defs>
<clipPath id="clip0_455_3707">
<rect width="24" height="24" fill="white"/>
</clipPath>
</defs>
</svg>
