<svg width="20" height="20" viewBox="0 0 20 20" fill="none" xmlns="http://www.w3.org/2000/svg">
<path d="M5.83341 18.6296H3.33341C2.89139 18.6296 2.46746 18.454 2.1549 18.1414C1.84234 17.8288 1.66675 17.4049 1.66675 16.9629V11.1296C1.66675 10.6875 1.84234 10.2636 2.1549 9.95105C2.46746 9.63849 2.89139 9.46289 3.33341 9.46289H5.83341M11.6667 7.79622V4.46289C11.6667 3.79985 11.4034 3.16396 10.9345 2.69512C10.4657 2.22628 9.82979 1.96289 9.16675 1.96289L5.83341 9.46289V18.6296H15.2334C15.6354 18.6341 16.0254 18.4932 16.3317 18.2329C16.6379 17.9726 16.8398 17.6103 16.9001 17.2129L18.0501 9.71289C18.0863 9.47402 18.0702 9.23012 18.0029 8.9981C17.9355 8.76607 17.8185 8.55147 17.66 8.36915C17.5014 8.18684 17.3051 8.04117 17.0847 7.94224C16.8643 7.84331 16.625 7.79349 16.3834 7.79622H11.6667Z" stroke="#0663C7" stroke-width="2" stroke-linecap="round" stroke-linejoin="round"/>
</svg>
