<svg width="47" height="47" viewBox="0 0 47 47" fill="none" xmlns="http://www.w3.org/2000/svg">
<path d="M23.5335 0.582031C18.967 0.58249 14.5032 1.93703 10.7065 4.47436C6.90988 7.01169 3.95087 10.6179 2.20367 14.8369C0.456472 19.0559 -0.000437319 23.6982 0.89072 28.1769C1.78188 32.6556 3.98108 36.7695 7.21023 39.9983C10.4394 43.2271 14.5535 45.4259 19.0322 46.3166C23.511 47.2073 28.1533 46.7499 32.3721 45.0023C36.591 43.2547 40.1968 40.2953 42.7338 36.4984C45.2707 32.7015 46.6248 28.2375 46.6248 23.6711C46.6248 20.6388 46.0275 17.6362 44.8671 14.8347C43.7066 12.0333 42.0057 9.48787 39.8614 7.34383C37.7171 5.19978 35.1716 3.49911 32.37 2.33891C29.5684 1.17872 26.5658 0.581727 23.5335 0.582031ZM17.373 34.8333H12.3031V18.4556H17.373V34.8333ZM14.8144 16.3106C14.2156 16.3154 13.6289 16.1423 13.1286 15.8132C12.6284 15.484 12.2372 15.0137 12.0047 14.4619C11.7722 13.9101 11.7088 13.3016 11.8227 12.7137C11.9366 12.1258 12.2225 11.585 12.6442 11.1599C13.066 10.7348 13.6045 10.4445 14.1914 10.326C14.7784 10.2074 15.3873 10.2659 15.941 10.4939C16.4947 10.722 16.9681 11.1094 17.3013 11.607C17.6344 12.1046 17.8122 12.6899 17.8121 13.2888C17.8152 14.087 17.5011 14.8537 16.939 15.4204C16.3768 15.9871 15.6126 16.3073 14.8144 16.3106ZM36.371 34.8333H31.3261V26.2366C31.3261 23.8788 30.4303 22.5624 28.5658 22.5624C26.5368 22.5624 25.4768 23.933 25.4768 26.2366V34.8333H20.6146V18.4556H25.4768V20.6613C25.9958 19.8226 26.7232 19.1326 27.5881 18.6584C28.453 18.1843 29.426 17.9422 30.4122 17.9557C33.8852 17.9557 36.371 20.0761 36.371 24.463V34.8333Z" fill="#171717"/>
</svg>
