<svg width="47" height="48" viewBox="0 0 47 48" fill="none" xmlns="http://www.w3.org/2000/svg">
<path d="M23.2273 0.985352C18.6609 0.98581 14.1971 2.34035 10.4004 4.87768C6.60373 7.41501 3.64472 11.0212 1.89752 15.2402C0.150319 19.4592 -0.30659 24.1016 0.584567 28.5802C1.47572 33.0589 3.67492 37.1728 6.90407 40.4016C10.1332 43.6304 14.2473 45.8292 18.7261 46.7199C23.2048 47.6106 27.8471 47.1533 32.066 45.4056C36.2848 43.658 39.8907 40.6986 42.4276 36.9017C44.9646 33.1048 46.3187 28.6409 46.3187 24.0744C46.3187 21.0421 45.7214 18.0395 44.5609 15.2381C43.4004 12.4366 41.6995 9.89119 39.5552 7.74715C37.411 5.60311 34.8654 3.90243 32.0638 2.74223C29.2623 1.58204 26.2596 0.985047 23.2273 0.985352ZM17.0669 35.2366H11.997V18.8589H17.0669V35.2366ZM14.5083 16.7139C13.9095 16.7188 13.3227 16.5456 12.8225 16.2165C12.3223 15.8874 11.9311 15.417 11.6985 14.8652C11.466 14.3134 11.4027 13.7049 11.5166 13.117C11.6304 12.5292 11.9164 11.9883 12.3381 11.5632C12.7598 11.1381 13.2983 10.8478 13.8853 10.7293C14.4722 10.6107 15.0812 10.6692 15.6348 10.8973C16.1885 11.1253 16.662 11.5128 16.9951 12.0103C17.3282 12.5079 17.506 13.0933 17.506 13.6921C17.5091 14.4903 17.195 15.257 16.6328 15.8237C16.0707 16.3904 15.3065 16.7106 14.5083 16.7139ZM36.0648 35.2366H31.02V26.6399C31.02 24.2821 30.1241 22.9657 28.2597 22.9657C26.2306 22.9657 25.1706 24.3364 25.1706 26.6399V35.2366H20.3085V18.8589H25.1706V21.0646C25.6897 20.2259 26.4171 19.5359 27.282 19.0618C28.1469 18.5876 29.1198 18.3455 30.1061 18.359C33.579 18.359 36.0648 20.4795 36.0648 24.8663V35.2366Z" fill="#171717"/>
<path d="M36.0648 35.2366H31.02V26.6399C31.02 24.2821 30.1241 22.9657 28.2597 22.9657C26.2306 22.9657 25.1706 24.3364 25.1706 26.6399V35.2366H20.3085V18.8589H25.1706V21.0646C25.6897 20.2259 26.4171 19.5359 27.282 19.0618C28.1469 18.5876 29.1198 18.3455 30.1061 18.359C33.579 18.359 36.0648 20.4795 36.0648 24.8663V35.2366Z" fill="white"/>
<path d="M17.0669 35.2366H11.997V18.8589H17.0669V35.2366Z" fill="white"/>
<path d="M14.5083 16.7139C13.9095 16.7188 13.3227 16.5456 12.8225 16.2165C12.3223 15.8874 11.9311 15.417 11.6985 14.8652C11.466 14.3134 11.4027 13.7049 11.5166 13.117C11.6304 12.5292 11.9164 11.9883 12.3381 11.5632C12.7598 11.1381 13.2983 10.8478 13.8853 10.7293C14.4722 10.6107 15.0812 10.6692 15.6348 10.8973C16.1885 11.1253 16.662 11.5128 16.9951 12.0103C17.3282 12.5079 17.506 13.0933 17.506 13.6921C17.5091 14.4903 17.195 15.257 16.6328 15.8237C16.0707 16.3904 15.3065 16.7106 14.5083 16.7139Z" fill="white"/>
</svg>
