<svg width="207" height="38" viewBox="0 0 207 38" fill="none" xmlns="http://www.w3.org/2000/svg">
<g clip-path="url(#clip0_360_5048)">
<path d="M21.0094 2.07202H16.4382V5.66366H21.0094V2.07202Z" fill="#066FE0"/>
<path d="M21.0094 8.14502H13.8262V11.7367H21.0094V8.14502Z" fill="#066FE0"/>
<path d="M21.0094 14.2183H10.2345V17.8099H21.0094V14.2183Z" fill="#066FE0"/>
<path d="M21.0094 20.2915H7.2959V23.8831H21.0094V20.2915Z" fill="#066FE0"/>
<path d="M21.0094 26.3645H3.70422V29.9561H21.0094V26.3645Z" fill="#066FE0"/>
<path d="M21.0094 32.4377H0.765625V36.0294H21.0094V32.4377Z" fill="#066FE0"/>
<path d="M41.6451 1.83691H23.5432V5.66364H48.4659C47.7521 4.49488 46.7499 3.52914 45.5555 2.85905C44.3611 2.18896 43.0146 1.837 41.6451 1.83691Z" fill="#066FE0"/>
<path d="M23.5432 17.8165H41.9683C43.2351 17.7648 44.4713 17.4121 45.5745 16.7875C46.6778 16.1629 47.6163 15.2844 48.3125 14.2249H23.5432V17.8165Z" fill="#066FE0"/>
<path d="M23.5432 11.776H49.4161C49.575 11.1351 49.6551 10.4772 49.6544 9.81694C49.6535 9.24397 49.5922 8.67269 49.4716 8.11255H23.5432V11.776Z" fill="#066FE0"/>
<path d="M23.5432 36.16H41.6451C43 36.1597 44.3326 35.8146 45.5173 35.1571C46.702 34.4997 47.6999 33.5515 48.4169 32.4019H23.5432V36.16Z" fill="#066FE0"/>
<path d="M23.5432 23.9124H49.3802C49.0198 22.5365 48.2983 21.2819 47.2905 20.2783H23.5432V23.9124Z" fill="#066FE0"/>
<path d="M23.5432 29.9496H49.4357C49.5696 29.3648 49.6375 28.7668 49.6381 28.1668V26.3743H23.5432V29.9496Z" fill="#066FE0"/>
<path d="M69.8753 22.4824C70.2075 22.7488 70.472 23.09 70.6474 23.4781C70.8227 23.8663 70.9039 24.2903 70.8842 24.7157C70.9096 25.3667 70.7076 26.0063 70.3128 26.5246C69.8981 27.0255 69.32 27.3643 68.6803 27.4813C69.4566 27.5466 70.1818 27.8953 70.7177 28.4608C71.2149 29.032 71.4764 29.7708 71.4491 30.5276C71.4703 30.9955 71.3777 31.4616 71.1792 31.8858C70.9807 32.31 70.6823 32.6798 70.3096 32.9634C69.5521 33.5403 68.4996 33.8298 67.1522 33.8319H62.1239V21.6726H67.0804C68.2689 21.6726 69.2005 21.9425 69.8753 22.4824ZM68.9839 26.4821C69.2169 26.2863 69.4011 26.0389 69.5218 25.7594C69.6425 25.48 69.6965 25.1763 69.6794 24.8724C69.6947 24.5754 69.6397 24.279 69.5188 24.0072C69.398 23.7355 69.2147 23.496 68.9839 23.3084C68.4141 22.905 67.7208 22.7143 67.0249 22.7697H63.2765V27.047H67.0281C67.7256 27.0891 68.4163 26.8896 68.9839 26.4821ZM69.3986 32.1504C69.6716 31.9545 69.8915 31.6938 70.0386 31.3917C70.1857 31.0895 70.2552 30.7556 70.241 30.4199C70.2543 30.0873 70.1834 29.7568 70.035 29.4589C69.8867 29.1609 69.6655 28.9053 69.3921 28.7155C68.6863 28.2725 67.86 28.0602 67.0281 28.1082H63.2765V32.7675H67.0281C68.0501 32.7675 68.837 32.5618 69.3986 32.1504Z" fill="black"/>
<path d="M81.1238 24.7354V33.8451H79.9679V31.6705C79.7141 32.3379 79.2573 32.9089 78.6619 33.303C78.0244 33.6891 77.2912 33.8882 76.5461 33.8777C76.0903 33.9028 75.6345 33.8311 75.2085 33.6673C74.7824 33.5036 74.3959 33.2514 74.0744 32.9276C73.4801 32.2963 73.183 31.4256 73.183 30.3155V24.7354H74.3388V30.0542C74.3136 30.4192 74.3606 30.7856 74.4771 31.1324C74.5936 31.4793 74.7774 31.7997 75.018 32.0754C75.265 32.3223 75.5614 32.5142 75.8877 32.6386C76.2141 32.7629 76.5631 32.8169 76.9118 32.7969C77.3366 32.8122 77.7592 32.73 78.1474 32.5569C78.5357 32.3837 78.8791 32.1241 79.1516 31.7978C79.7221 31.0613 80.0115 30.1457 79.9679 29.2151V24.7354H81.1238Z" fill="black"/>
<path d="M87.2524 25.8387C86.8494 25.7196 86.4317 25.658 86.0116 25.6558C85.5336 25.6301 85.0584 25.7435 84.6435 25.9824C84.4758 26.0912 84.3397 26.2425 84.2491 26.4208C84.1586 26.5991 84.1166 26.7981 84.1276 26.9978C84.1216 27.1379 84.1433 27.2778 84.1915 27.4095C84.2397 27.5412 84.3134 27.662 84.4084 27.7651C84.6057 27.9693 84.8423 28.1314 85.1039 28.2418C85.4835 28.3993 85.8716 28.5355 86.2663 28.65C86.7768 28.7982 87.2765 28.9815 87.7617 29.1985C88.1439 29.3798 88.4791 29.6469 88.7412 29.9789C89.0276 30.3684 89.1717 30.8444 89.1494 31.3274C89.1681 31.6938 89.0938 32.059 88.9333 32.389C88.7729 32.719 88.5316 33.003 88.2319 33.2146C87.5572 33.6663 86.7578 33.8947 85.9463 33.8676C85.3093 33.8708 84.6768 33.7603 84.0786 33.5411C83.5123 33.3429 82.9963 33.0231 82.5669 32.604L83.0273 31.7682C83.8403 32.5094 84.8984 32.9245 85.9985 32.9338C86.5155 32.9565 87.0274 32.8235 87.4679 32.5518C87.6512 32.4316 87.8 32.2657 87.8997 32.0705C87.9993 31.8752 88.0463 31.6574 88.036 31.4384C88.0487 31.1365 87.9459 30.8411 87.7486 30.6123C87.5473 30.3946 87.2995 30.225 87.0238 30.116C86.7332 29.9919 86.3349 29.8515 85.8255 29.6883C85.3225 29.5384 84.8305 29.354 84.3529 29.1365C83.9796 28.9646 83.6527 28.706 83.3995 28.3822C83.0773 27.8977 82.9484 27.3099 83.0385 26.735C83.1286 26.1601 83.431 25.6399 83.886 25.2771C84.5325 24.8535 85.2947 24.6413 86.0671 24.6698C86.5676 24.6682 87.0657 24.7386 87.5462 24.8787C87.9962 25.0064 88.4251 25.1989 88.8196 25.4501L88.3756 26.3383C88.0271 26.1186 87.6488 25.9503 87.2524 25.8387Z" fill="black"/>
<path d="M91.8072 21.5257C91.8811 21.6035 91.9388 21.6953 91.9769 21.7956C92.015 21.8959 92.0328 22.0029 92.0293 22.1101C92.0343 22.3296 91.9521 22.5421 91.8007 22.7011C91.7309 22.7779 91.6457 22.8392 91.5506 22.8808C91.4555 22.9224 91.3527 22.9435 91.2489 22.9427C91.1424 22.9452 91.0367 22.925 90.9387 22.8833C90.8407 22.8416 90.7528 22.7795 90.6808 22.7011C90.5285 22.5425 90.4451 22.33 90.4489 22.1101C90.4465 22.0021 90.4657 21.8948 90.5055 21.7944C90.5454 21.694 90.605 21.6026 90.6808 21.5257C90.7536 21.4488 90.8419 21.3881 90.9398 21.3476C91.0377 21.3071 91.143 21.2877 91.2489 21.2906C91.3533 21.2876 91.4572 21.307 91.5535 21.3476C91.6499 21.3881 91.7364 21.4489 91.8072 21.5257ZM90.671 24.7353H91.8072V33.845H90.671V24.7353Z" fill="black"/>
<path d="M101.381 25.6463C101.696 26.0007 101.939 26.4138 102.094 26.862C102.25 27.3102 102.316 27.7847 102.288 28.2584V33.8581H101.132V28.5261C101.171 27.7937 100.922 27.0752 100.437 26.5246C100.183 26.2741 99.8799 26.0796 99.5464 25.9537C99.2129 25.8277 98.8567 25.773 98.5008 25.7932C98.0941 25.7802 97.6891 25.8505 97.3106 25.9998C96.9321 26.1492 96.5882 26.3745 96.3001 26.6618C95.7278 27.2895 95.3949 28.0987 95.3597 28.9473V33.845H94.2202V24.7353H95.3597V26.8511C95.6283 26.1884 96.1005 25.6281 96.7082 25.2512C97.3673 24.8761 98.1148 24.6845 98.873 24.6961C99.3341 24.6715 99.7952 24.7432 100.227 24.9068C100.659 25.0704 101.052 25.3223 101.381 25.6463Z" fill="black"/>
<path d="M111.391 26.0479C112.116 26.9469 112.45 28.155 112.394 29.6722H104.972C105.014 30.5629 105.39 31.4051 106.027 32.0296C106.333 32.324 106.695 32.5546 107.091 32.7082C107.488 32.8618 107.91 32.9352 108.335 32.9242C108.879 32.9247 109.417 32.8136 109.916 32.5977C110.393 32.3943 110.821 32.0916 111.173 31.7096L111.826 32.3626C111.395 32.8383 110.865 33.2148 110.275 33.4663C109.643 33.7324 108.962 33.8658 108.277 33.8581C107.476 33.8708 106.687 33.669 105.991 33.2736C105.325 32.8871 104.781 32.3215 104.42 31.6411C104.047 30.9044 103.852 30.09 103.852 29.264C103.852 28.4381 104.047 27.6237 104.42 26.887C104.78 26.2061 105.324 25.6403 105.991 25.2545C106.679 24.863 107.459 24.6623 108.25 24.6733C109.622 24.6907 110.669 25.1489 111.391 26.0479ZM111.375 28.7677C111.366 27.9166 111.036 27.1003 110.451 26.4822C110.161 26.1993 109.816 25.9786 109.438 25.8337C109.059 25.6889 108.655 25.6229 108.25 25.6398C107.837 25.632 107.425 25.7062 107.04 25.8581C106.655 26.01 106.304 26.2365 106.007 26.5246C105.395 27.1238 105.026 27.9288 104.972 28.7841L111.375 28.7677Z" fill="black"/>
<path d="M117.7 25.8389C117.297 25.7201 116.879 25.6585 116.459 25.6561C115.981 25.6303 115.506 25.7437 115.091 25.9826C114.923 26.091 114.786 26.2421 114.696 26.4205C114.605 26.5989 114.563 26.7982 114.575 26.998C114.569 27.1381 114.591 27.278 114.639 27.4097C114.687 27.5414 114.761 27.6622 114.856 27.7653C115.053 27.9695 115.29 28.1316 115.551 28.242C115.931 28.4 116.319 28.5363 116.714 28.6502C117.224 28.7989 117.724 28.9822 118.209 29.1987C118.591 29.38 118.927 29.6471 119.189 29.9791C119.485 30.3696 119.636 30.8509 119.616 31.3406C119.636 31.7072 119.562 32.0726 119.401 32.4027C119.241 32.7327 118.999 33.0167 118.699 33.2279C118.025 33.6808 117.225 33.9093 116.413 33.8809C115.776 33.8841 115.144 33.7735 114.546 33.5544C113.979 33.3562 113.463 33.0363 113.034 32.6173L113.494 31.7814C113.891 32.1493 114.354 32.4385 114.859 32.6336C115.369 32.8438 115.914 32.9547 116.466 32.9601C116.983 32.9829 117.494 32.8498 117.935 32.5781C118.118 32.458 118.267 32.2921 118.367 32.0968C118.466 31.9015 118.513 31.6837 118.503 31.4647C118.516 31.1628 118.413 30.8675 118.216 30.6386C118.011 30.4091 117.757 30.2302 117.471 30.1162C117.181 29.9921 116.782 29.8517 116.273 29.6885C115.774 29.538 115.287 29.3536 114.813 29.1367C114.44 28.9648 114.113 28.7062 113.86 28.3824C113.584 28.0047 113.447 27.5435 113.471 27.0764C113.45 26.7255 113.519 26.3752 113.672 26.0585C113.825 25.7419 114.056 25.4696 114.343 25.2675C114.991 24.8442 115.754 24.6321 116.528 24.6602C117.027 24.6582 117.524 24.7286 118.003 24.8692C118.459 25.0024 118.893 25.2027 119.29 25.4634L118.846 26.3515C118.491 26.1253 118.105 25.9526 117.7 25.8389Z" fill="black"/>
<path d="M125.027 25.8389C124.624 25.7201 124.206 25.6585 123.786 25.6561C123.308 25.6303 122.833 25.7437 122.418 25.9826C122.248 26.0921 122.11 26.2453 122.019 26.4262C121.928 26.6072 121.888 26.8092 121.902 27.0111C121.89 27.2934 121.99 27.5689 122.179 27.7784C122.38 27.9823 122.618 28.1443 122.881 28.2551C123.261 28.4131 123.649 28.5493 124.044 28.6633C124.554 28.812 125.054 28.9953 125.539 29.2118C125.922 29.3919 126.258 29.6591 126.519 29.9922C126.806 30.3811 126.951 30.8575 126.927 31.3407C126.946 31.7072 126.872 32.0726 126.712 32.4027C126.551 32.7328 126.31 33.0167 126.009 33.2279C125.335 33.6808 124.536 33.9094 123.724 33.8809C123.087 33.8841 122.454 33.7735 121.856 33.5544C121.29 33.3562 120.774 33.0364 120.344 32.6173L120.805 31.7815C121.202 32.1493 121.665 32.4385 122.17 32.6336C122.679 32.8439 123.225 32.9547 123.776 32.9602C124.293 32.9829 124.805 32.8498 125.245 32.5781C125.433 32.4571 125.585 32.2884 125.686 32.0893C125.787 31.8903 125.833 31.668 125.82 31.4451C125.831 31.1435 125.729 30.8487 125.533 30.6191C125.329 30.3969 125.076 30.2248 124.795 30.1162C124.508 29.9922 124.109 29.8518 123.6 29.6885C123.1 29.5374 122.612 29.3531 122.137 29.1367C121.765 28.964 121.439 28.7055 121.187 28.3825C120.911 28.0047 120.774 27.5435 120.798 27.0764C120.777 26.7256 120.846 26.3752 120.999 26.0586C121.152 25.742 121.383 25.4696 121.67 25.2675C122.322 24.851 123.088 24.6468 123.861 24.6831C124.36 24.6811 124.858 24.7514 125.337 24.892C125.787 25.0184 126.216 25.211 126.61 25.4634L126.169 26.3515C125.816 26.1256 125.431 25.9529 125.027 25.8389Z" fill="black"/>
<path d="M142.417 33.8449L141.006 30.6125H134.417L133.026 33.8449H131.769L137.117 21.6921H138.342L143.69 33.8449H142.417ZM134.877 29.5317H140.549L137.695 22.9623L134.877 29.5317Z" fill="black"/>
<path d="M148.219 25.7245C147.617 25.7156 147.024 25.8726 146.505 26.1783C145.996 26.4775 145.583 26.9145 145.313 27.4386C145.023 28.012 144.877 28.6475 144.888 29.29C144.878 29.9355 145.024 30.574 145.313 31.1511C145.582 31.6778 145.995 32.1171 146.505 32.418C147.024 32.7237 147.617 32.8807 148.219 32.8718C148.765 32.8747 149.305 32.7635 149.806 32.5453C150.277 32.3456 150.694 32.0354 151.02 31.6409L151.673 32.3363C151.271 32.8259 150.759 33.2131 150.178 33.4661C149.546 33.7404 148.862 33.8773 148.173 33.8677C147.373 33.8822 146.583 33.6803 145.888 33.2832C145.222 32.896 144.678 32.3306 144.317 31.6507C143.944 30.9151 143.749 30.1018 143.749 29.2769C143.749 28.452 143.944 27.6387 144.317 26.9032C144.678 26.2228 145.222 25.6572 145.888 25.2706C146.584 24.8761 147.373 24.6754 148.173 24.6894C148.821 24.6818 149.464 24.8004 150.067 25.0388C150.62 25.2592 151.12 25.5929 151.536 26.0183L150.883 26.7987C150.535 26.4486 150.119 26.1728 149.661 25.9882C149.203 25.8035 148.713 25.7138 148.219 25.7245Z" fill="black"/>
<path d="M159.124 33.8449L159.105 32.3136C158.771 32.835 158.294 33.2488 157.73 33.5053C157.114 33.7775 156.445 33.9112 155.771 33.8972C155.221 33.9093 154.676 33.7872 154.184 33.5413C153.744 33.3224 153.376 32.9826 153.123 32.5617C152.87 32.1363 152.74 31.6492 152.748 31.1545C152.733 30.7951 152.807 30.4377 152.962 30.1133C153.118 29.7889 153.35 29.5075 153.639 29.2933C154.36 28.8027 155.223 28.564 156.094 28.6142H159.082V27.9154C159.101 27.6089 159.054 27.3019 158.946 27.0144C158.838 26.7269 158.671 26.4654 158.455 26.247C157.943 25.8202 157.285 25.6084 156.62 25.656C155.569 25.6935 154.56 26.0781 153.75 26.7498L153.247 25.9498C153.775 25.5614 154.351 25.2431 154.961 25.003C155.562 24.791 156.196 24.6882 156.832 24.6993C157.908 24.6993 158.739 24.9747 159.327 25.5254C159.628 25.8227 159.863 26.1795 160.019 26.5731C160.174 26.9666 160.245 27.3883 160.228 27.811V33.8449H159.124ZM157.995 32.3593C158.545 31.98 158.94 31.4139 159.105 30.7659V29.5154H156.235C155.614 29.4768 154.996 29.6161 154.452 29.917C154.253 30.0446 154.092 30.2228 153.984 30.4334C153.877 30.644 153.828 30.8793 153.841 31.1153C153.833 31.3631 153.882 31.6094 153.983 31.8357C154.084 32.062 154.236 32.2623 154.426 32.4213C154.867 32.7683 155.419 32.9445 155.98 32.9176C156.69 32.9401 157.389 32.7453 157.985 32.3593H157.995Z" fill="black"/>
<path d="M170.817 20.9443V33.8448H169.681V31.7486C169.371 32.4056 168.881 32.9606 168.267 33.3486C167.62 33.7352 166.878 33.9311 166.125 33.9134C165.338 33.9279 164.562 33.7233 163.885 33.3224C163.226 32.9304 162.695 32.3568 162.354 31.6703C161.983 30.9255 161.797 30.1023 161.812 29.2704C161.796 28.4436 161.985 27.6257 162.363 26.8901C162.714 26.2163 163.242 25.6516 163.891 25.2576C164.562 24.8598 165.329 24.6553 166.108 24.6666C166.865 24.651 167.61 24.8503 168.257 25.2412C168.878 25.6277 169.376 26.1825 169.694 26.8412V20.9639L170.817 20.9443ZM168.048 32.4441C168.558 32.138 168.973 31.6959 169.246 31.1674C169.532 30.5875 169.681 29.9496 169.681 29.3031C169.681 28.6565 169.532 28.0186 169.246 27.4387C169.033 27.0394 168.742 26.6874 168.389 26.404C168.036 26.1205 167.63 25.9115 167.194 25.7894C166.758 25.6674 166.302 25.6348 165.854 25.6938C165.405 25.7528 164.973 25.9021 164.584 26.1326C164.071 26.4504 163.654 26.902 163.379 27.4387C163.092 28.0184 162.943 28.6564 162.943 29.3031C162.943 29.9498 163.092 30.5878 163.379 31.1674C163.655 31.6972 164.073 32.1394 164.587 32.4441C165.108 32.7513 165.703 32.9104 166.308 32.9045C166.919 32.9157 167.522 32.7563 168.048 32.4441Z" fill="black"/>
<path d="M180.139 26.0479C180.863 26.9469 181.198 28.155 181.141 29.6722H173.719C173.76 30.5625 174.135 31.4047 174.771 32.0296C175.078 32.3239 175.44 32.5545 175.837 32.7081C176.234 32.8616 176.657 32.9351 177.082 32.9242C177.626 32.9251 178.164 32.8139 178.663 32.5977C179.141 32.3951 179.569 32.0922 179.92 31.7096L180.573 32.3626C180.14 32.8377 179.61 33.214 179.019 33.4662C178.388 33.7324 177.709 33.8658 177.024 33.8581C176.223 33.8706 175.434 33.6688 174.738 33.2736C174.073 32.8861 173.529 32.3207 173.168 31.641C172.794 30.9043 172.599 30.09 172.599 29.264C172.599 28.4381 172.794 27.6237 173.168 26.887C173.528 26.2067 174.072 25.6411 174.738 25.2544C175.426 24.8632 176.206 24.6626 176.998 24.6733C178.36 24.6907 179.407 25.1489 180.139 26.0479ZM180.122 28.7677C180.113 27.9162 179.781 27.0998 179.195 26.4821C178.905 26.1992 178.56 25.9786 178.182 25.8337C177.803 25.6889 177.399 25.6228 176.994 25.6397C176.581 25.6323 176.17 25.7066 175.786 25.8585C175.402 26.0103 175.051 26.2367 174.754 26.5246C174.14 27.1221 173.77 27.9281 173.719 28.784L180.122 28.7677Z" fill="black"/>
<path d="M196.608 25.6396C197.196 26.2632 197.49 27.135 197.49 28.2517V33.8514H196.347V28.526C196.393 27.7864 196.147 27.0582 195.661 26.4983C195.413 26.2526 195.117 26.0614 194.791 25.9371C194.464 25.8129 194.116 25.7582 193.767 25.7767C193.343 25.7673 192.923 25.853 192.536 26.0276C192.15 26.2022 191.807 26.4613 191.534 26.7857C190.967 27.5199 190.681 28.4323 190.727 29.3586V33.8449H189.572V28.526C189.618 27.7857 189.371 27.057 188.883 26.4983C188.635 26.2521 188.339 26.0606 188.012 25.9363C187.686 25.812 187.338 25.7576 186.989 25.7767C186.564 25.7677 186.142 25.8536 185.755 26.0282C185.368 26.2027 185.024 26.4615 184.749 26.7857C184.177 27.5174 183.887 28.4307 183.933 29.3586V33.8449H182.797V24.7352H183.933V26.8738C184.181 26.2033 184.639 25.6308 185.239 25.2413C185.886 24.866 186.623 24.6741 187.371 24.6862C188.129 24.6611 188.874 24.891 189.487 25.3392C190.061 25.7906 190.454 26.4321 190.597 27.1481C190.815 26.4102 191.275 25.7672 191.903 25.3229C192.57 24.9006 193.347 24.6826 194.136 24.696C194.592 24.6692 195.047 24.7395 195.474 24.9022C195.9 25.0648 196.286 25.3162 196.608 25.6396Z" fill="black"/>
<path d="M201.215 36.7314C200.782 37.0859 200.237 37.2766 199.677 37.2702C199.012 37.2785 198.364 37.0571 197.842 36.6433L198.352 35.7388C198.722 36.0098 199.169 36.1561 199.628 36.1568C199.988 36.157 200.336 36.0271 200.608 35.7911C200.935 35.5024 201.186 35.138 201.339 34.7299L201.711 33.7928L198.032 24.7354H199.236L202.293 32.5717L205.231 24.7354H206.403L202.293 35.1478C202.079 35.7612 201.707 36.3074 201.215 36.7314Z" fill="black"/>
<path d="M67.4429 3.82541V13.6371H64.8961V3.84173H61.6636V1.47778H70.6753V3.82541H67.4429Z" fill="black"/>
<path d="M74.1919 8.5924V13.637H71.743V0.72998H74.1919V5.32401C74.4959 4.9567 74.8755 4.65923 75.3049 4.45188C75.7342 4.24452 76.2032 4.13216 76.6799 4.12245C77.1206 4.1166 77.5573 4.20707 77.9594 4.38754C78.3615 4.56801 78.7194 4.83413 79.0079 5.16729C79.6663 5.94019 80.0049 6.93514 79.9548 7.94917V13.637H77.4962V8.52384C77.4962 7.085 77.001 6.36559 76.0106 6.36559C75.7706 6.36718 75.5335 6.41849 75.3144 6.51627C75.0952 6.61405 74.8987 6.75619 74.7372 6.93372C74.3456 7.39408 74.1498 7.98949 74.1919 8.5924Z" fill="black"/>
<path d="M89.3486 12.2821C88.9019 12.7593 88.3619 13.1395 87.7619 13.399C87.162 13.6586 86.5151 13.7918 85.8615 13.7906C85.2506 13.8107 84.6421 13.7052 84.0737 13.4805C83.5054 13.2559 82.9892 12.9169 82.5571 12.4845C81.6864 11.6138 81.2511 10.4395 81.2511 8.96146C81.2511 7.48345 81.6941 6.31236 82.58 5.44819C83.4026 4.63523 84.5047 4.16725 85.6609 4.13994C86.8171 4.11263 87.94 4.52805 88.8001 5.30125C89.6446 6.07835 90.0669 7.14496 90.0669 8.50108V9.87243H83.6673C83.7022 10.1206 83.7866 10.3592 83.9156 10.5741C84.0447 10.7889 84.2156 10.9756 84.4183 11.123C84.8278 11.444 85.3346 11.6156 85.8549 11.6095C86.2545 11.6203 86.6515 11.5435 87.0182 11.3844C87.3849 11.2254 87.7122 10.9879 87.9773 10.6887L89.3486 12.2821ZM86.9977 6.73138C86.6582 6.43039 86.2171 6.26937 85.7635 6.28079C85.2804 6.28113 84.8118 6.44579 84.4346 6.74771C84.2367 6.89989 84.0722 7.0912 83.9514 7.30972C83.8306 7.52824 83.7562 7.76928 83.7326 8.01784H87.5854C87.561 7.52969 87.3507 7.0694 86.9977 6.73138Z" fill="black"/>
<path d="M104.025 13.6371L102.964 11.025H98.1808L97.1196 13.6371H94.4095L99.3399 1.47778H101.805L106.735 13.6371H104.025ZM100.581 5.09554L99.144 8.62841H102.001L100.581 5.09554Z" fill="black"/>
<path d="M109.305 13.6371L105.828 4.26294H108.374L110.562 10.1598L112.76 4.26294H115.306L111.819 13.6371H109.305Z" fill="black"/>
<path d="M121.837 9.32392V4.2793H124.302V13.6371H121.837V12.4029C121.227 13.3281 120.44 13.7906 119.476 13.7906C119.027 13.7999 118.58 13.7178 118.164 13.5495C117.748 13.3811 117.37 13.1299 117.053 12.8111C116.4 12.158 116.074 11.2046 116.074 9.95082V4.2793H118.539V9.37616C118.539 10.8128 119.032 11.5344 120.024 11.5344C120.264 11.535 120.502 11.4851 120.721 11.3877C120.941 11.2904 121.137 11.1479 121.298 10.9695C121.685 10.512 121.878 9.92167 121.837 9.32392Z" fill="black"/>
<path d="M128.635 8.41933V13.6435H126.186V4.27915H128.635V5.32399C128.94 4.95626 129.322 4.65862 129.753 4.4513C130.184 4.24397 130.654 4.13181 131.132 4.12242C131.573 4.11568 132.01 4.20576 132.413 4.38629C132.815 4.56682 133.172 4.83341 133.46 5.16726C134.113 5.94293 134.448 6.93678 134.398 7.94915V13.637H131.949V8.35076C131.949 6.91193 131.454 6.19251 130.463 6.19251C130.222 6.19199 129.984 6.24198 129.763 6.33928C129.543 6.43657 129.345 6.579 129.183 6.75738C128.987 6.98478 128.838 7.2486 128.744 7.53377C128.649 7.81894 128.612 8.11985 128.635 8.41933Z" fill="black"/>
<path d="M143.638 13.6369H141.336V12.5072C141.08 12.897 140.733 13.2179 140.324 13.4417C139.915 13.6655 139.458 13.7852 138.992 13.7904C138.129 13.8159 137.29 13.507 136.651 12.9284C136.336 12.6392 136.088 12.2848 135.925 11.8901C135.761 11.4954 135.686 11.0697 135.704 10.6428C135.676 10.2315 135.751 9.81985 135.922 9.44479C136.093 9.06974 136.355 8.74312 136.683 8.49435C137.336 8.01764 138.229 7.77929 139.361 7.77929H141.189V7.73031C141.189 6.73118 140.694 6.23162 139.703 6.23162C139.241 6.23948 138.784 6.33131 138.355 6.50263C137.922 6.65926 137.517 6.88533 137.157 7.17198L136.063 5.48391C137.189 4.6007 138.583 4.12841 140.014 4.1452C140.959 4.10466 141.886 4.40735 142.626 4.9974C143.298 5.56553 143.638 6.46344 143.638 7.6944V13.6369ZM141.166 10.0714V9.62082H139.632C138.652 9.62082 138.162 9.94733 138.162 10.6004C138.154 10.748 138.181 10.8955 138.242 11.0303C138.303 11.1651 138.395 11.2831 138.512 11.3742C138.808 11.5719 139.161 11.6671 139.517 11.6452C139.94 11.6489 140.349 11.4966 140.667 11.2175C140.832 11.0772 140.963 10.901 141.049 10.7024C141.136 10.5037 141.176 10.2879 141.166 10.0714Z" fill="black"/>
</g>
<defs>
<clipPath id="clip0_360_5048">
<rect width="205.638" height="36.54" fill="white" transform="translate(0.765625 0.72998)"/>
</clipPath>
</defs>
</svg>
