<svg width="64" height="65" viewBox="0 0 64 65" fill="none" xmlns="http://www.w3.org/2000/svg">
<path d="M6.26001 40.9969L8.19101 40.48L11.427 52.554L9.49501 53.072L6.26001 40.9969Z" fill="white"/>
<path d="M1.48645 38.6372L3.4183 38.1196L3.94396 40.0814L2.01211 40.599L1.48645 38.6372Z" fill="white"/>
<path d="M8.82973 35.1331L3.03418 36.686L4.32827 41.5157L10.1238 39.9627L8.82973 35.1331Z" fill="white"/>
<path d="M8.8291 35.1329L18.4191 28.4229L21.7841 40.9789L10.1241 39.9629L8.8291 35.1329Z" fill="#F4F7F8"/>
<path d="M20.3516 27.9048C20.2086 27.3714 19.6603 27.0548 19.1268 27.1977C18.5933 27.3407 18.2768 27.889 18.4197 28.4225L21.7844 40.9795C21.9273 41.513 22.4756 41.8296 23.0091 41.6866C23.5426 41.5437 23.8591 40.9953 23.7162 40.4619L20.3516 27.9048Z" fill="white"/>
<path d="M35.4861 41.3989H30.4861V53.3989H35.4861V41.3989Z" fill="#F4F7F8"/>
<path d="M43.4861 34.3989H38.4861V53.399H43.4861V34.3989Z" fill="#F4F7F8"/>
<path d="M51.4861 26.3989H46.4861V53.399H51.4861V26.3989Z" fill="#F4F7F8"/>
<path d="M59.4861 18.3989H54.4861V53.399H59.4861V18.3989Z" fill="#F4F7F8"/>
<path d="M35.4861 41.399V53.399H30.4861L35.4861 41.399ZM43.4861 34.3989V53.399H38.4861L43.4861 34.3989ZM51.4861 26.3989V53.399H46.4861L51.4861 26.3989ZM59.4861 18.3989V53.399H54.4861L59.4861 18.3989Z" fill="white"/>
<path d="M35.4861 41.3989H30.4861V53.3989H35.4861V41.3989Z" stroke="#C4C4C4" stroke-linecap="round" stroke-linejoin="round"/>
<path d="M16.999 40.781C17.047 40.881 17.359 41.7249 17.388 41.8149C17.672 42.6849 17.096 43.069 16.564 42.975L14.008 42.657C13.498 42.593 12.985 42.152 12.858 41.667L12.488 40.261" stroke="#C4C4C4" stroke-linecap="round" stroke-linejoin="round"/>
<path d="M9.61049 38.0391L10.1236 39.9618L4.32804 41.5147L4.01671 39.7927L9.61049 38.0391Z" fill="white"/>
<path d="M8.82973 35.1331L3.03418 36.686L4.32827 41.5157L10.1238 39.9627L8.82973 35.1331Z" stroke="#C4C4C4" stroke-linecap="round" stroke-linejoin="round"/>
<path d="M19.681 33.1309L20.101 34.7009L20.943 37.8398L21.783 40.9799L10.123 39.9629L19.681 33.1309Z" fill="white"/>
<path d="M8.8291 35.1329L18.4191 28.4229L21.7841 40.9789L10.1241 39.9629L8.8291 35.1329Z" stroke="#C4C4C4" stroke-linecap="round" stroke-linejoin="round"/>
<path d="M20.3516 27.9048C20.2086 27.3714 19.6603 27.0548 19.1268 27.1977C18.5933 27.3407 18.2768 27.889 18.4197 28.4225L21.7844 40.9795C21.9273 41.513 22.4756 41.8296 23.0091 41.6866C23.5426 41.5437 23.8591 40.9953 23.7162 40.4619L20.3516 27.9048Z" stroke="#C4C4C4" stroke-linecap="round" stroke-linejoin="round"/>
<path d="M9.80908 46.5171L11.4271 52.5541L10.4611 52.8131L9.49508 53.0721L7.87708 47.0352L9.80908 46.5171Z" fill="white"/>
<path d="M6.26001 40.9969L8.19101 40.48L11.427 52.554L9.49501 53.072L6.26001 40.9969Z" stroke="#C4C4C4" stroke-linecap="round" stroke-linejoin="round"/>
<path d="M1.48645 38.6372L3.4183 38.1196L3.94396 40.0814L2.01211 40.599L1.48645 38.6372Z" stroke="#C4C4C4" stroke-linecap="round" stroke-linejoin="round"/>
<path d="M24.9411 33.4151L28.5511 32.4481M25.3371 35.3751L28.7541 36.5351M24.3031 31.5151L26.6831 28.8081" stroke="#C4C4C4" stroke-linecap="round" stroke-linejoin="round"/>
<path d="M43.4861 34.3989H38.4861V53.399H43.4861V34.3989Z" stroke="#C4C4C4" stroke-linecap="round" stroke-linejoin="round"/>
<path d="M51.4861 26.3989H46.4861V53.399H51.4861V26.3989Z" stroke="#C4C4C4" stroke-linecap="round" stroke-linejoin="round"/>
<path d="M59.4861 18.3989H54.4861V53.399H59.4861V18.3989Z" stroke="#C4C4C4" stroke-linecap="round" stroke-linejoin="round"/>
<path d="M17.493 53.3741H61.493M29.986 38.3741H34.486V31.374H42.486V23.374H50.486V14.374H59.086" stroke="#C4C4C4" stroke-linecap="round" stroke-linejoin="round"/>
<path d="M57.516 12.407L59.486 14.4L57.516 16.394" stroke="#C4C4C4" stroke-linecap="round" stroke-linejoin="round"/>
<path d="M10.6381 36.2339L11.4341 35.6769M12.7641 34.7469L13.4221 34.2859M14.7861 33.3309L18.9761 30.3989" stroke="#C4C4C4" stroke-linecap="round" stroke-linejoin="round"/>
</svg>
