<svg width="33" height="33" viewBox="0 0 33 33" fill="none" xmlns="http://www.w3.org/2000/svg">
<path d="M24.7656 11.4763C24.7656 9.35459 23.9228 7.31976 22.4225 5.81946C20.9222 4.31917 18.8874 3.47632 16.7656 3.47632C14.6439 3.47632 12.6091 4.31917 11.1088 5.81946C9.60848 7.31976 8.76562 9.35459 8.76562 11.4763C8.76562 20.8097 4.76562 23.4763 4.76562 23.4763H28.7656C28.7656 23.4763 24.7656 20.8097 24.7656 11.4763Z" fill="#343434" stroke="#343434" strokeWidth="2.66667" strokeLinecap="round" strokeLinejoin="round"/>
<path d="M19.0723 28.8096C18.8379 29.2137 18.5014 29.5491 18.0966 29.7823C17.6918 30.0154 17.2328 30.1382 16.7657 30.1382C16.2985 30.1382 15.8395 30.0154 15.4347 29.7823C15.0299 29.5491 14.6934 29.2137 14.459 28.8096" stroke="#343434" strokeWidth="2.66667" strokeLinecap="round" strokeLinejoin="round"/>
</svg>
