<svg width="102" height="102" viewBox="0 0 102 102" fill="none" xmlns="http://www.w3.org/2000/svg">
<path d="M100.997 39.9309V101H1.00262V39.9309" fill="#F9F9F9"/>
<path d="M100.997 39.9309V101H1.00262V39.9309" stroke="#A6BCC0" stroke-width="1.9752" stroke-linecap="round" stroke-linejoin="round"/>
<path d="M50.9111 1.00537L1.00262 38.4145L50.9111 69.524L100.814 38.3479L50.9111 1.00537Z" fill="#F2F2F2" stroke="#A6BCC0" stroke-width="1.9752" stroke-linecap="round" stroke-linejoin="round"/>
<path d="M12.1131 12.0049V45.3365L50.4222 69.2241H51.3999L89.8867 45.1754V12.0104L12.1131 12.0049Z" fill="#FFF593" stroke="#F4BA00" stroke-width="1.9752"/>
<path d="M1.04153 100.978L34.3009 78.8013L1.04153 100.978ZM100.908 100.978L67.6991 78.8013L100.908 100.978Z" fill="#FFF593"/>
<path d="M1.04153 100.978L34.3009 78.8013M100.908 100.978L67.6991 78.8013" stroke="#A6BCC0" stroke-width="1.9752" stroke-linecap="round" stroke-linejoin="round"/>
<path d="M1.00262 38.4146L50.9111 69.524L100.814 38.3479" stroke="#A6BCC0" stroke-width="1.9752" stroke-linecap="round" stroke-linejoin="round"/>
<path d="M31.5565 20.2766H70.3544V26.1819H31.5565V20.2766ZM26.0013 31.5594H75.9986V37.4646H26.0013V31.5594ZM37.1118 42.6699H64.8881V48.5751H37.1118V42.6699Z" fill="#F4BA00"/>
<path d="M79.2152 44.6975C91.2451 44.6975 100.997 34.9156 100.997 22.8488C100.997 10.782 91.2451 1 79.2152 1C67.1852 1 57.433 10.782 57.433 22.8488C57.433 34.9156 67.1852 44.6975 79.2152 44.6975Z" fill="#E5FFD5" stroke="#71C837" stroke-width="1.9752" stroke-linecap="round" stroke-linejoin="round"/>
<path d="M87.6869 17.2712L76.5764 28.4374L87.6869 17.2712ZM76.5764 28.3987L70.7267 22.7933L76.5764 28.3987Z" fill="#D5FFF6"/>
<path d="M87.6869 17.2712L76.5764 28.4374M76.5764 28.3987L70.7267 22.7933" stroke="#71C837" stroke-width="1.9752" stroke-linecap="round" stroke-linejoin="round"/>
</svg>
