<svg width="99" height="18" viewBox="0 0 99 18" fill="none" xmlns="http://www.w3.org/2000/svg">
<g clip-path="url(#clip0_901_3012)">
<path d="M8.68408 1.52246L10.9203 6.05271L15.9209 6.78363L12.3025 10.308L13.1564 15.2869L8.68408 12.9349L4.21173 15.2869L5.06567 10.308L1.44727 6.78363L6.4479 6.05271L8.68408 1.52246Z" fill="#FFA826" stroke="#FFA826" stroke-width="1.44736" stroke-linecap="round" stroke-linejoin="round"/>
</g>
<g clip-path="url(#clip1_901_3012)">
<path d="M28.9478 1.52246L31.1839 6.05271L36.1846 6.78363L32.5662 10.308L33.4201 15.2869L28.9478 12.9349L24.4754 15.2869L25.3293 10.308L21.7109 6.78363L26.7116 6.05271L28.9478 1.52246Z" fill="#FFA826" stroke="#FFA826" stroke-width="1.44736" stroke-linecap="round" stroke-linejoin="round"/>
</g>
<g clip-path="url(#clip2_901_3012)">
<path d="M49.2102 1.52246L51.4464 6.05271L56.447 6.78363L52.8286 10.308L53.6826 15.2869L49.2102 12.9349L44.7379 15.2869L45.5918 10.308L41.9734 6.78363L46.974 6.05271L49.2102 1.52246Z" fill="#FFA826" stroke="#FFA826" stroke-width="1.44736" stroke-linecap="round" stroke-linejoin="round"/>
</g>
<g clip-path="url(#clip3_901_3012)">
<path d="M69.4736 1.52246L71.7098 6.05271L76.7104 6.78363L73.092 10.308L73.946 15.2869L69.4736 12.9349L65.0013 15.2869L65.8552 10.308L62.2368 6.78363L67.2375 6.05271L69.4736 1.52246Z" fill="#FFA826" stroke="#FFA826" stroke-width="1.44736" stroke-linecap="round" stroke-linejoin="round"/>
</g>
<g clip-path="url(#clip4_901_3012)">
<path d="M89.7361 1.52246L91.9723 6.05271L96.9729 6.78362L93.3545 10.308L94.2084 15.2869L89.7361 12.9349L85.2637 15.2869L86.1177 10.308L82.4993 6.78362L87.4999 6.05271L89.7361 1.52246Z" stroke="#FFA826" stroke-width="1.44736" stroke-linecap="round" stroke-linejoin="round"/>
</g>
<defs>
<clipPath id="clip0_901_3012">
<rect width="17.3684" height="17.3684" fill="white" transform="translate(0 0.0751953)"/>
</clipPath>
<clipPath id="clip1_901_3012">
<rect width="17.3684" height="17.3684" fill="white" transform="translate(20.2632 0.0751953)"/>
</clipPath>
<clipPath id="clip2_901_3012">
<rect width="17.3684" height="17.3684" fill="white" transform="translate(40.5261 0.0751953)"/>
</clipPath>
<clipPath id="clip3_901_3012">
<rect width="17.3684" height="17.3684" fill="white" transform="translate(60.7893 0.0751953)"/>
</clipPath>
<clipPath id="clip4_901_3012">
<rect width="17.3684" height="17.3684" fill="white" transform="translate(81.0522 0.0751953)"/>
</clipPath>
</defs>
</svg>
