<svg width="47" height="47" viewBox="0 0 47 47" fill="none" xmlns="http://www.w3.org/2000/svg">
<ellipse cx="23.3642" cy="23.6711" rx="23.089" ry="23.089" fill="#171717"/>
<g clip-path="url(#clip0_1024_8868)">
<path d="M35.3105 17.5462C35.3296 17.8134 35.3296 18.0806 35.3296 18.3477C35.3296 26.4958 29.1279 35.8843 17.793 35.8843C14.3009 35.8843 11.0569 34.8729 8.32812 33.1174C8.82428 33.1746 9.30129 33.1937 9.81654 33.1937C12.6979 33.1937 15.3504 32.2206 17.4685 30.5604C14.7589 30.5031 12.4881 28.7285 11.7057 26.2859C12.0873 26.3431 12.469 26.3813 12.8697 26.3813C13.4231 26.3813 13.9765 26.305 14.4917 26.1714C11.6675 25.5989 9.54934 23.1183 9.54934 20.1223V20.046C10.3699 20.504 11.324 20.7902 12.3353 20.8284C10.6752 19.7216 9.58752 17.8324 9.58752 15.6952C9.58752 14.5503 9.89278 13.5008 10.4271 12.5848C13.4612 16.3249 18.0219 18.7674 23.1359 19.0346C23.0405 18.5767 22.9833 18.0996 22.9833 17.6226C22.9833 14.2259 25.7311 11.459 29.1468 11.459C30.9215 11.459 32.5244 12.2032 33.6503 13.4054C35.0432 13.1382 36.379 12.623 37.5622 11.917C37.1041 13.3482 36.1309 14.5504 34.8525 15.3136C36.0928 15.1801 37.295 14.8365 38.4017 14.3595C37.5623 15.5807 36.5127 16.6684 35.3105 17.5462Z" fill="white"/>
</g>
<defs>
<clipPath id="clip0_1024_8868">
<rect width="30.0737" height="30.0737" fill="white" transform="translate(8.32788 9.33984)"/>
</clipPath>
</defs>
</svg>
