<svg width="33" height="26" viewBox="0 0 33 26" fill="none" xmlns="http://www.w3.org/2000/svg">
<path d="M29.2106 6.48201C29.2309 6.76626 29.2309 7.05057 29.2309 7.33482C29.2309 16.0048 22.632 25.9947 10.5711 25.9947C6.85531 25.9947 3.40356 24.9185 0.5 23.0506C1.02794 23.1114 1.5355 23.1318 2.08375 23.1318C5.14969 23.1318 7.97206 22.0963 10.2259 20.3298C7.34262 20.2688 4.92637 18.3805 4.09387 15.7815C4.5 15.8424 4.90606 15.883 5.3325 15.883C5.92131 15.883 6.51019 15.8018 7.05837 15.6597C4.05331 15.0505 1.79944 12.4109 1.79944 9.22313V9.14194C2.6725 9.62926 3.68781 9.93382 4.76388 9.97438C2.99738 8.79669 1.84006 6.78657 1.84006 4.51245C1.84006 3.2942 2.16488 2.17745 2.73344 1.20282C5.96187 5.18251 10.8147 7.78145 16.2563 8.06576C16.1548 7.57845 16.0938 7.07088 16.0938 6.56326C16.0938 2.94901 19.0177 0.00488281 22.6522 0.00488281C24.5405 0.00488281 26.2461 0.796758 27.4441 2.07595C28.9263 1.7917 30.3476 1.24345 31.6065 0.492195C31.1191 2.01507 30.0836 3.29426 28.7232 4.10638C30.0431 3.96432 31.3222 3.59876 32.4999 3.0912C31.6066 4.39063 30.4898 5.54795 29.2106 6.48201Z" fill="#066FE0"/>
</svg>
