<svg width="20" height="21" viewBox="0 0 20 21" fill="none" xmlns="http://www.w3.org/2000/svg">
<path d="M14.1667 1.96319H16.3917C16.8633 1.95485 17.3216 2.11997 17.6795 2.42721C18.0375 2.73444 18.2701 3.16241 18.3334 3.62986V9.46319C18.2701 9.93064 18.0375 10.3586 17.6795 10.6658C17.3216 10.9731 16.8633 11.1382 16.3917 11.1299H14.1667M8.33336 12.7965V16.1299C8.33336 16.7929 8.59675 17.4288 9.06559 17.8976C9.53443 18.3665 10.1703 18.6299 10.8334 18.6299L14.1667 11.1299V1.96319H4.76669C4.36475 1.95865 3.97471 2.09952 3.66844 2.35985C3.36216 2.62019 3.16029 2.98244 3.10003 3.37986L1.95003 10.8799C1.91377 11.1187 1.92988 11.3626 1.99724 11.5946C2.0646 11.8267 2.18161 12.0413 2.34014 12.2236C2.49868 12.4059 2.69496 12.5516 2.91538 12.6505C3.13581 12.7494 3.3751 12.7993 3.61669 12.7965H8.33336Z" stroke="#0663C7" stroke-width="2" stroke-linecap="round" stroke-linejoin="round"/>
</svg>
