<svg width="20" height="22" viewBox="0 0 20 22" fill="none" xmlns="http://www.w3.org/2000/svg">
<path d="M9.7666 9.8125C11.0264 9.8125 12.2346 9.31206 13.1254 8.42126C14.0162 7.53046 14.5166 6.32228 14.5166 5.0625C14.5166 3.80272 14.0162 2.59454 13.1254 1.70374C12.2346 0.812945 11.0264 0.3125 9.7666 0.3125C8.50682 0.3125 7.29864 0.812945 6.40784 1.70374C5.51705 2.59454 5.0166 3.80272 5.0166 5.0625C5.0166 6.32228 5.51705 7.53046 6.40784 8.42126C7.29864 9.31206 8.50682 9.8125 9.7666 9.8125ZM9.7666 12.1875C7.92282 12.1861 6.10413 12.6147 4.455 13.4393C2.80587 14.2639 1.37176 15.4616 0.266602 16.9375C1.37176 18.4134 2.80587 19.6111 4.455 20.4357C6.10413 21.2603 7.92282 21.6889 9.7666 21.6875C11.6104 21.6889 13.4291 21.2603 15.0782 20.4357C16.7273 19.6111 18.1614 18.4134 19.2666 16.9375C18.1614 15.4616 16.7273 14.2639 15.0782 13.4393C13.4291 12.6147 11.6104 12.1861 9.7666 12.1875Z" fill="#5B5B5B"/>
</svg>
