<svg width="20" height="22" viewBox="0 0 20 22" fill="none" xmlns="http://www.w3.org/2000/svg">
<path d="M10.001 9.8125C11.2608 9.8125 12.4689 9.31206 13.3597 8.42126C14.2505 7.53046 14.751 6.32228 14.751 5.0625C14.751 3.80272 14.2505 2.59454 13.3597 1.70374C12.4689 0.812945 11.2608 0.3125 10.001 0.3125C8.7412 0.3125 7.53302 0.812945 6.64222 1.70374C5.75142 2.59454 5.25098 3.80272 5.25098 5.0625C5.25098 6.32228 5.75142 7.53046 6.64222 8.42126C7.53302 9.31206 8.7412 9.8125 10.001 9.8125ZM10.001 12.1875C8.1572 12.1861 6.3385 12.6147 4.68937 13.4393C3.04025 14.2639 1.60614 15.4616 0.500977 16.9375C1.60614 18.4134 3.04025 19.6111 4.68937 20.4357C6.3385 21.2603 8.1572 21.6889 10.001 21.6875C11.8448 21.6889 13.6635 21.2603 15.3126 20.4357C16.9617 19.6111 18.3958 18.4134 19.501 16.9375C18.3958 15.4616 16.9617 14.2639 15.3126 13.4393C13.6635 12.6147 11.8448 12.1861 10.001 12.1875Z" fill="white"/>
</svg>
